<svg width="22" height="22" viewBox="0 0 22 22" fill="none" xmlns="http://www.w3.org/2000/svg">
    <path d="M16.69 9.482a1.45 1.45 0 0 0-.644-1.206l-4.56-3.041a1.45 1.45 0 0 0-1.61 0l-4.56 3.04a1.45 1.45 0 0 0-.646 1.207V15.8a1.21 1.21 0 0 0 1.21 1.21h9.6a1.21 1.21 0 0 0 1.21-1.21V9.48zm0 0h-.25m.25 0h-.25m0 0V15.8a.96.96 0 0 1-.96.96h-9.6a.96.96 0 0 1-.96-.96V9.48m11.52 0a1.2 1.2 0 0 0-.533-.998l-4.56-3.04a1.2 1.2 0 0 0-1.332 0L4.92 9.482m0 0a1.2 1.2 0 0 1 .535-.999l-.535.999zm11.912-2.39v.001a2.87 2.87 0 0 1 1.278 2.389V15.8a2.63 2.63 0 0 1-2.63 2.63h-9.6a2.63 2.63 0 0 1-2.63-2.63V9.48a2.87 2.87 0 0 1 1.278-2.388l4.56-3.04a2.87 2.87 0 0 1 3.184 0l4.56 3.04z" fill="#959595" stroke="#222" stroke-width=".5"/>
    <path d="M12.76 13.653h.25v-2.535l-.1-.075-1.92-1.44-.15-.113-.15.113-1.92 1.44-.1.075v2.535h4.09zm-.918-5.186 1.92 1.44a1.671 1.671 0 0 1 .668 1.336v2.16a1.67 1.67 0 0 1-1.67 1.67H8.92a1.67 1.67 0 0 1-1.67-1.67v-2.16a1.67 1.67 0 0 1 .668-1.336l1.92-1.44a1.67 1.67 0 0 1 2.004 0z" fill="#959595" stroke="#222" stroke-width=".5"/>
</svg>
