<svg width="22" height="22" viewBox="0 0 22 22" fill="none" xmlns="http://www.w3.org/2000/svg">
    <path d="m10.98 16.866.057.008.058-.008c.118-.015.29-.006.52.03.227.037.483.096.761.166l.3.076c.465.119.973.249 1.416.304.252.032.528-.038.77-.142.254-.109.52-.275.763-.49.483-.43.911-1.094.911-1.94 0-.902-.463-1.67-.924-2.235a8.534 8.534 0 0 0-.683-.734l-.221-.21c-.1-.096-.175-.167-.229-.225a1.46 1.46 0 0 1-.122-.174l-.14-.227-.077-.128a8.812 8.812 0 0 0-.654-.95c-.53-.656-1.325-1.348-2.449-1.348-1.124 0-1.919.692-2.45 1.348a8.82 8.82 0 0 0-.652.95l-.078.128-.14.227a1.461 1.461 0 0 1-.122.175c-.053.057-.128.128-.229.223l-.22.211c-.206.2-.45.447-.684.734-.46.564-.924 1.333-.924 2.234 0 .847.428 1.51.912 1.94.242.216.508.382.762.49.242.105.519.175.77.143.444-.055.951-.185 1.416-.304l.3-.076c.278-.07.534-.129.76-.165.232-.037.404-.046.521-.03zM6.577 6.586a3.48 3.48 0 0 0 .505 1.443 2.625 2.625 0 0 0-.727-.643c-.494-.29-1.09-.393-1.647-.167-.557.225-.914.713-1.068 1.265-.154.551-.114 1.191.13 1.797.244.606.66 1.093 1.153 1.384.494.29 1.09.392 1.647.167.557-.226.914-.713 1.068-1.265.154-.552.115-1.192-.13-1.798a3.081 3.081 0 0 0-.26-.505c.042.053.085.103.129.152.42.458 1 .757 1.638.678.639-.078 1.13-.508 1.426-1.055.297-.548.423-1.246.334-1.969-.088-.722-.379-1.37-.8-1.83-.42-.458-1-.756-1.638-.678-.638.079-1.13.509-1.426 1.055-.297.548-.422 1.247-.334 1.97zm4.646-.51c-.089.723.037 1.421.334 1.969.296.547.787.976 1.425 1.055.639.078 1.22-.22 1.64-.679a2.73 2.73 0 0 0 .128-.15c-.1.156-.188.325-.26.504-.245.606-.284 1.246-.13 1.797.154.553.51 1.04 1.068 1.266.557.225 1.153.123 1.647-.168.493-.29.909-.777 1.153-1.383s.284-1.246.13-1.797c-.154-.553-.51-1.04-1.068-1.266-.557-.225-1.153-.123-1.647.168-.27.159-.518.378-.727.643.26-.408.439-.905.505-1.443.088-.723-.037-1.42-.334-1.969-.297-.546-.787-.976-1.426-1.055-.639-.078-1.219.22-1.639.679-.42.46-.71 1.107-.8 1.83z" stroke="#959595" stroke-width=".9"/>
</svg>
