<svg width="22" height="22" viewBox="0 0 22 22" fill="none" xmlns="http://www.w3.org/2000/svg">
    <path d="M7.147 3a.275.275 0 0 0-.275.275V6.85a.275.275 0 0 0-.275.275V11.8a.275.275 0 0 0-.275.275v.825a.275.275 0 0 0-.275.275v5.5a.825.825 0 0 0 .825.825h2.75a.825.825 0 0 0 .825-.825v-5.5a.275.275 0 0 0-.275-.275v-.825a.275.275 0 0 0-.275-.275V7.125a.275.275 0 0 0-.275-.275V5.475A2.478 2.478 0 0 0 7.147 3zm2.75 15.675a.275.275 0 0 1-.275.275h-2.75a.275.275 0 0 1-.275-.275V13.45h3.3v5.225zM6.872 12.9v-.55h2.75v.55h-2.75zm.275-1.1V7.4h2.2v4.4h-2.2zm.275-4.95V3.57a1.929 1.929 0 0 1 1.65 1.905V6.85h-1.65zM15.947 19.23V9.88a.825.825 0 0 0-.825-.825h-2.75a.825.825 0 0 0-.825.825v9.35a.275.275 0 0 0 .275.275h3.85a.275.275 0 0 0 .275-.275zm-.55-.275h-3.3V9.88c0-.152.123-.275.275-.275h2.75a.275.275 0 0 1 .275.275v9.075z" fill="#959595" stroke="#959595" stroke-width=".3"/>
</svg>
