<svg width="22" height="22" viewBox="0 0 22 22" fill="none" xmlns="http://www.w3.org/2000/svg">
    <path d="M16 16.2c0 .44-.371.8-.831.8H6.83C6.373 17 6 16.64 6 16.2c0-2.65 2.239-4.8 5-4.8s5 2.15 5 4.8zm-5-3.733c-2.054 0-3.737 1.529-3.879 3.466h7.758c-.142-1.937-1.824-3.466-3.879-3.466zm0-1.6c-1.687 0-3.055-1.314-3.055-2.934S9.313 5 11 5c1.688 0 3.056 1.313 3.056 2.933 0 1.62-1.368 2.934-3.056 2.934zM11 9.8c1.074 0 1.944-.836 1.944-1.867 0-1.03-.87-1.866-1.944-1.866-1.074 0-1.944.835-1.944 1.866 0 1.031.87 1.867 1.944 1.867z" fill="#959595" stroke="#222" stroke-width=".1"/>
</svg>
