<svg width="22" height="22" viewBox="0 0 22 22" fill="none" xmlns="http://www.w3.org/2000/svg">
    <path fill-rule="evenodd" clip-rule="evenodd" d="m18.974 12.957-7.524-2.871a.426.426 0 0 1 .28-.403 1.906 1.906 0 1 0-2.587-1.6l.88-.084V7.9a1.026 1.026 0 1 1 1.397.956 1.312 1.312 0 0 0-.84 1.22l-7.544 2.88a.867.867 0 0 0-.567.824v.275a.88.88 0 0 0 .88.88H18.66a.88.88 0 0 0 .88-.88v-.275a.867.867 0 0 0-.567-.823zm-.313.823v.275H3.35v-.275l7.656-2.923 7.656 2.921v.002z" fill="#959595" stroke="#959595" stroke-width=".1"/>
</svg>
