<svg width="22" height="22" viewBox="0 0 22 22" fill="none" xmlns="http://www.w3.org/2000/svg">
    <path d="M11 4a7 7 0 1 0 0 14 7 7 0 0 0 0-14zm5.453 4.5H14.07a9.081 9.081 0 0 0-1.775-3.357A6.023 6.023 0 0 1 16.453 8.5zm-5.48 8.265A8.108 8.108 0 0 1 8.975 13.5h4.05a8.107 8.107 0 0 1-2 3.265.045.045 0 0 1-.052 0zM8.723 12.5a8.25 8.25 0 0 1 0-3h4.554a8.248 8.248 0 0 1 0 3H8.723zM5 11c0-.506.063-1.01.19-1.5h2.517a9.254 9.254 0 0 0 0 3H5.19A5.946 5.946 0 0 1 5 11zm6-5.775a.038.038 0 0 1 .027 0A8.109 8.109 0 0 1 13.025 8.5h-4.05a8.108 8.108 0 0 1 2-3.265.037.037 0 0 1 .025-.01zM14.293 9.5h2.517a6.015 6.015 0 0 1 0 3h-2.517a9.252 9.252 0 0 0 0-3zM9.705 5.143A9.117 9.117 0 0 0 7.93 8.5H5.548a6.022 6.022 0 0 1 4.157-3.357zM5.548 13.5H7.93a9.081 9.081 0 0 0 1.775 3.358A6.022 6.022 0 0 1 5.548 13.5zm6.75 3.358A9.12 9.12 0 0 0 14.07 13.5h2.383a6.023 6.023 0 0 1-4.158 3.358h.003z" fill="#959595" stroke="#222" stroke-width=".3"/>
</svg>
