<svg width="22" height="22" viewBox="0 0 22 22" fill="none" xmlns="http://www.w3.org/2000/svg">
    <path fill-rule="evenodd" clip-rule="evenodd" d="M11 3c-4.415 0-8 3.585-8 8s3.585 8 8 8 8-3.585 8-8-3.585-8-8-8zm0 1.067A6.937 6.937 0 0 1 17.933 11 6.937 6.937 0 0 1 11 17.933 6.937 6.937 0 0 1 4.067 11 6.937 6.937 0 0 1 11 4.067zm-.533 3.2A2.13 2.13 0 0 0 8.333 9.4c0 1.178.956 2.133 2.134 2.133h1.066a1.066 1.066 0 1 1 0 2.134H9.4a.533.533 0 0 0 0 1.066h1.067V15.8a.533.533 0 0 0 1.066 0v-1.067a2.13 2.13 0 0 0 2.134-2.133 2.133 2.133 0 0 0-2.134-2.133h-1.066a1.066 1.066 0 1 1 0-2.134H12.6a.533.533 0 0 0 0-1.066h-1.067V6.2a.533.533 0 0 0-1.066 0v1.067z" fill="#959595"/>
</svg>
