<svg width="22" height="22" viewBox="0 0 22 22" fill="none" xmlns="http://www.w3.org/2000/svg">
    <path d="m15.495 16.995-.646-8.759-.232-3.976c-.017-.427-.398-.76-.83-.76-.795 0-1.458.554-1.59 1.299l-.68 4.277c-.067.459.066.918.38 1.267.266.285.614.475.996.538l-.448 6.114c-.033.38.116.776.398 1.061a1.5 1.5 0 0 0 1.077.444h.1c.398 0 .796-.158 1.077-.444.283-.285.432-.665.399-1.06zm-1.458 1.061h-.1c-.58 0-1.044-.475-.995-1.013l.481-6.574h-.248c-.73 0-1.294-.617-1.178-1.314l.68-4.277c.083-.523.564-.919 1.127-.919.2 0 .365.143.365.333l.232 3.976.647 8.759c.017.554-.431 1.03-1.011 1.03zM10.483 7.467v-.442h-.017L10.4 4.227c0-.348-.267-.632-.619-.711-.05-.016-.1-.016-.15-.016a.805.805 0 0 0-.57.237.805.805 0 0 0-.72-.221.818.818 0 0 0-.417.221.805.805 0 0 0-.57-.237c-.05 0-.1 0-.15.016a.757.757 0 0 0-.62.711L6.5 7.451v.427c0 .554.218 1.075.586 1.407l.435.395-.552 7.318c-.034.38.117.775.401 1.06.285.284.67.442 1.088.442h.1c.402 0 .804-.158 1.088-.443.285-.284.419-.663.402-1.059l-.552-7.334.418-.395c.368-.332.586-.853.586-1.407v-.395h-.017zm-.469.427c0 .427-.167.838-.435 1.09l-.586.538.57 7.54c.033.553-.419 1.011-1.005 1.011h-.1c-.586 0-1.055-.474-1.004-1.011l.569-7.54-.586-.537c-.268-.253-.435-.664-.435-1.09v-.428l.083-3.224c0-.127.1-.253.235-.285h.066c.168 0 .302.127.302.285 0 0 .05 2.37.067 3.066 0 .095.083.174.2.174.1 0 .201-.079.201-.174l.067-3.05c0-.127.1-.253.234-.285h.067c.168 0 .301.127.301.285 0 0 .05 2.386.067 3.066 0 .095.084.174.201.174.1 0 .201-.08.201-.174.017-.68.067-3.066.067-3.066 0-.158.134-.285.301-.285h.067a.293.293 0 0 1 .234.285l.084 3.24v.395h-.033z" fill="#959595" stroke="#959595" stroke-width=".3"/>
</svg>
