<svg width="22" height="22" viewBox="0 0 22 22" fill="none" xmlns="http://www.w3.org/2000/svg">
    <path d="M17.967 8.29c-.02-.327-.216-3.214-.883-3.535-.665-.319-3.12 1.296-3.396 1.481-.712.474-1.386 1-2.017 1.572l-.179.168a5.464 5.464 0 0 0-.094-.169c-.728-1.259-2.267-2.286-3.12-2.786-.51-.3-2.215-1.252-2.725-.97-.51.284-.552 2.203-.553 2.786 0 .973.107 2.793.834 4.051.83 1.435 2.017 2.286 3.205 2.4.034 1.378.626 2.534 1.726 3.208l-.978 1.953a.38.38 0 0 0 .18.512.395.395 0 0 0 .523-.175l.979-1.953c.39.14.803.212 1.22.212a3.942 3.942 0 0 0 1.71-.402c1.122-.538 2.091-1.572 2.802-2.99.85-1.696.844-4.086.766-5.362zm-11.45 2.221c-.998-1.722-.758-4.917-.538-5.724.41.115 1.345.534 2.302 1.14.958.604 1.938 1.396 2.436 2.257.074.127.142.255.202.382-.432.466-.8.986-1.093 1.546-.05.1-.1.201-.143.302L8.079 7.641a.396.396 0 0 0-.533-.144.379.379 0 0 0-.148.522l1.927 3.331c-.12.384-.204.777-.25 1.175-.927-.1-1.863-.81-2.559-2.014zm9.981 2.803c-.634 1.266-1.48 2.179-2.444 2.64a2.996 2.996 0 0 1-2.238.185l3.088-6.162a.379.379 0 0 0-.18-.511.395.395 0 0 0-.522.174l-2.348 4.686-.112.222-.63 1.255c-.838-.543-1.283-1.447-1.304-2.544a4.578 4.578 0 0 1 .078-.94c.064-.358.161-.711.289-1.054.101-.278.22-.55.353-.816.195-.379.433-.736.708-1.064.19-.23.39-.45.602-.661 1.697-1.698 4.18-3.034 4.877-3.23.353.87 1.008 5.376-.217 7.82z" fill="#959595" stroke="#959595" stroke-width=".2"/>
</svg>
