<svg width="23" height="22" viewBox="0 0 23 22" fill="none" xmlns="http://www.w3.org/2000/svg">
    <path d="m17.34 7.024-5.178-2.858a1.396 1.396 0 0 0-1.322 0L5.661 7.024c-.203.11-.371.272-.487.466A1.216 1.216 0 0 0 5 8.13v5.732c.003.222.065.441.18.634.116.194.281.356.48.47l5.182 2.858a1.317 1.317 0 0 0 1.321 0l5.18-2.873c.202-.111.37-.272.485-.467.115-.194.175-.414.172-.637V8.129c0-.223-.062-.443-.178-.636a1.315 1.315 0 0 0-.483-.47h.002zm-5.977-1.989a.236.236 0 0 1 .135-.03.462.462 0 0 1 .135.03l4.78 2.654.526.87v5.428l-.138.094-4.78 2.655-1.04-.016-4.917-2.639V8.556l.519-.87 4.78-2.651zm-5.164 9.046a.279.279 0 0 1-.096-.094.266.266 0 0 1-.04-.127V8.556v5.525l4.918 2.64L6.2 14.08zm10.602 0 .138-.094V8.559v5.29a.257.257 0 0 1-.034.135.271.271 0 0 1-.101.1l-.003-.003z" fill="#959595"/>
    <path d="M9.73 11.003c0 .644-.528 1.166-1.181 1.166a1.174 1.174 0 0 1-1.182-1.166c0-.645.53-1.167 1.182-1.167.653 0 1.182.522 1.182 1.167zM15.553 10.962a.05.05 0 0 1 0 .087l-1.622.924a.05.05 0 0 1-.075-.043v-1.849a.05.05 0 0 1 .075-.043l1.622.924z" fill="#959595"/>
    <path fill-rule="evenodd" clip-rule="evenodd" d="M15.604 10.874c.1.057.1.203 0 .26l-1.622.925a.15.15 0 0 1-.224-.13v-1.85a.15.15 0 0 1 .224-.13l1.622.925zm-.175.13-1.471-.838v1.676l1.47-.838z" fill="#959595"/>
    <path d="M9.484 10.766h4.728v.583H9.484v-.583z" fill="#959595"/>
</svg>
