<svg width="22" height="22" viewBox="0 0 22 22" fill="none" xmlns="http://www.w3.org/2000/svg">
    <path d="M5 12.167a.39.39 0 0 0 .211.348l10.706 5.445a.382.382 0 0 0 .342 0l1.53-.778a.39.39 0 0 0 .211-.348v-7a.403.403 0 0 0-.211-.348L7.083 4.04a.376.376 0 0 0-.342 0l-1.53.778A.403.403 0 0 0 5 5.167v7zm12.235 4.427-.764.389v-6.131l.764-.39v6.132zM6.912 4.824l9.85 5.01-.674.343-9.85-5.01.674-.343zm-1.147.972 9.94 5.056v6.13l-9.94-5.055v-6.13z" fill="#959595" stroke="#959595" stroke-width=".15"/>
</svg>
