<svg width="22" height="22" viewBox="0 0 22 22" fill="none" xmlns="http://www.w3.org/2000/svg">
    <path d="M10.64 17.275A6.637 6.637 0 0 1 5.945 5.942c2.59-2.59 6.803-2.59 9.391 0a6.638 6.638 0 0 1-4.696 11.333zm0-12.26a5.624 5.624 0 0 0-3.977 9.6 5.63 5.63 0 0 0 7.954 0 5.622 5.622 0 0 0-3.977-9.6z" fill="#959595"/>
    <path d="M11.165 17.253c-.015 0-.03 0-.044-.002a.508.508 0 0 1-.463-.549 6.641 6.641 0 0 1 6.044-6.044.508.508 0 0 1 .087 1.012 5.628 5.628 0 0 0-5.12 5.12.507.507 0 0 1-.504.463zM4.525 10.613a.508.508 0 0 1-.043-1.014A5.626 5.626 0 0 0 9.6 4.479a.507.507 0 1 1 1.012.088 6.64 6.64 0 0 1-6.088 6.045zM6.305 15.48a.508.508 0 0 1-.36-.868L14.62 5.94a.508.508 0 0 1 .718.718L6.664 15.33a.508.508 0 0 1-.36.15z" fill="#959595"/>
    <path d="M14.972 15.48a.508.508 0 0 1-.36-.15L5.94 6.657a.508.508 0 0 1 .718-.718l8.673 8.673a.508.508 0 0 1-.358.867z" fill="#959595"/>
</svg>
