<svg width="22" height="22" viewBox="0 0 22 22" fill="none" xmlns="http://www.w3.org/2000/svg">
    <path d="m14.184 11.508-1.636-3.053V6.09c.288 0 .55-.11.728-.303a.997.997 0 0 0 .316-.742c0-.577-.467-1.045-1.045-1.045H9.055c-.289 0-.55.11-.729.303a.997.997 0 0 0-.316.742c0 .577.468 1.045 1.045 1.045v2.351L7.42 11.507l-2.173 4.07a2.1 2.1 0 0 0 1.856 3.08h7.426a2.1 2.1 0 0 0 1.856-3.08l-2.2-4.07zm-4.47-2.805a.366.366 0 0 0 .042-.165V5.745a.34.34 0 0 0-.344-.344H9.07a.34.34 0 0 1-.234-.59.331.331 0 0 1 .247-.097h3.493a.34.34 0 0 1 .233.591.331.331 0 0 1-.247.096h-.344a.34.34 0 0 0-.344.344v2.791c0 .055.014.11.042.165l1.375 2.627H8.312l1.403-2.627zm5.996 8.58a1.384 1.384 0 0 1-1.196.673H7.089c-.495 0-.95-.247-1.197-.674a1.366 1.366 0 0 1-.027-1.374L7.94 12.03h5.734l2.076 3.878c.234.426.22.948-.041 1.374z" fill="#959595" stroke="#959595" stroke-width=".2"/>
</svg>
