<svg width="22" height="22" viewBox="0 0 22 22" fill="none" xmlns="http://www.w3.org/2000/svg">
    <path d="M17.3 8.85h-.073l-.079-.55h1.802a.55.55 0 0 0 0-1.1h-1.959l-.112-.783A1.658 1.658 0 0 0 15.246 5H7.254c-.816 0-1.518.609-1.633 1.417l-.112.783H3.55a.55.55 0 0 0 0 1.1h1.802l-.079.55H5.2c-1.213 0-2.2.987-2.2 2.2v1.1c0 1.213.987 2.2 2.2 2.2V16c0 .607.493 1.1 1.1 1.1h1.65c.607 0 1.1-.493 1.1-1.1v-1.65h4.4V16c0 .607.493 1.1 1.1 1.1h1.65c.607 0 1.1-.493 1.1-1.1v-1.65c1.213 0 2.2-.987 2.2-2.2v-1.1c0-1.213-.987-2.2-2.2-2.2zM6.71 6.572a.553.553 0 0 1 .544-.472h7.992c.272 0 .506.203.545.472l.325 2.278H6.384l.326-2.278zM7.95 16H6.3v-1.65h1.65V16zm8.25 0h-1.65v-1.65h1.65V16zm2.2-3.85c0 .607-.493 1.1-1.1 1.1H5.2c-.607 0-1.1-.493-1.1-1.1v-1.1c0-.607.493-1.1 1.1-1.1h12.1c.607 0 1.1.494 1.1 1.1v1.1z" fill="#959595" stroke="#222" stroke-width=".2"/>
    <path d="M7.403 11.6a1.1 1.1 0 1 1-2.2 0 1.1 1.1 0 0 1 2.2 0zM17.302 11.6a1.1 1.1 0 1 1-2.2 0 1.1 1.1 0 0 1 2.2 0z" fill="#959595" stroke="#222" stroke-width=".2"/>
</svg>
