<svg width="22" height="22" viewBox="0 0 22 22" fill="none" xmlns="http://www.w3.org/2000/svg">
    <path d="M5 7.006v1.76a10.507 10.507 0 0 0 5.073 8.962l.129.077a1.65 1.65 0 0 0 1.699 0l.126-.075A10.505 10.505 0 0 0 17.1 8.768v-1.76a1.647 1.647 0 0 0-1.273-1.605 36.79 36.79 0 0 1-4.215-1.301 1.603 1.603 0 0 0-1.123 0 36.765 36.765 0 0 1-4.217 1.3A1.646 1.646 0 0 0 5 7.007zm1.1 0a.55.55 0 0 1 .427-.534 37.95 37.95 0 0 0 4.348-1.342.495.495 0 0 1 .35 0c1.422.534 2.874.982 4.349 1.342a.55.55 0 0 1 .426.535v1.76a9.396 9.396 0 0 1-4.54 8.017l-.125.076a.55.55 0 0 1-.566 0l-.128-.078a9.399 9.399 0 0 1-4.54-8.014V7.006z" fill="#959595" stroke="#222" stroke-width=".1"/>
    <path d="m10.322 15.13.452.266a.55.55 0 0 0 .558 0l.452-.265a6.246 6.246 0 0 0 3.12-5.438V8.657a1.18 1.18 0 0 0-.925-1.152 22.638 22.638 0 0 1-2.52-.76 1.155 1.155 0 0 0-.811 0c-.825.302-1.667.556-2.52.76a1.182 1.182 0 0 0-.925 1.154v1.082a6.287 6.287 0 0 0 3.119 5.39zM8.303 8.66a.088.088 0 0 1 .072-.083c1.112-.258 2.14-.611 2.704-.8.868.32 1.753.586 2.652.8.04.007.07.04.072.08v1.036a5.155 5.155 0 0 1-2.576 4.489l-.174.103-.174-.103A5.183 5.183 0 0 1 8.303 9.74V8.659z" fill="#959595" stroke="#222" stroke-width=".1"/>
</svg>
