<svg width="16" height="16" viewBox="0 0 16 16" fill="none" xmlns="http://www.w3.org/2000/svg">
    <mask id="8wh3ceq6da" maskUnits="userSpaceOnUse" x="2" y="2" width="12" height="12" fill="#000">
        <path fill="#fff" d="M2 2h12v12H2z"/>
        <path fill-rule="evenodd" clip-rule="evenodd" d="M7.409 8 3 12.409l.591.591 4.41-4.409L12.408 13l.591-.591-4.408-4.41L13 3.592 12.41 3 8 7.409 3.592 3 3 3.591 7.41 8z"/>
    </mask>
    <path fill-rule="evenodd" clip-rule="evenodd" d="M7.409 8 3 12.409l.591.591 4.41-4.409L12.408 13l.591-.591-4.408-4.41L13 3.592 12.41 3 8 7.409 3.592 3 3 3.591 7.41 8z" fill="#E2E2E2"/>
    <path d="m3 12.409-.141-.142-.142.142.142.141L3 12.41zm4.409-4.41.141.142L7.692 8l-.142-.142L7.41 8zM3.59 13l-.141.141.141.142.142-.142L3.59 13zm4.41-4.409.14-.141-.14-.142-.142.142L8 8.59zM12.408 13l-.141.141.141.142.141-.142-.14-.141zm.591-.591.142.141.141-.141-.141-.142-.141.142zm-4.408-4.41-.142-.14-.141.14.141.142L8.592 8zM13 3.592l.142.142.141-.142-.141-.141-.142.141zM12.41 3l.141-.141-.141-.142-.142.142.142.141zM8 7.409l-.141.14.141.142.142-.141L8 7.409zM3.592 3l.141-.141-.141-.142-.142.142.142.141zM3 3.591 2.86 3.45l-.142.141.142.142L3 3.59zm.141 8.96 4.41-4.41-.284-.283-4.408 4.41.282.282zm.592.308-.592-.592-.282.283.591.591.283-.282zm4.126-4.41L3.45 12.86l.283.282 4.409-4.408-.283-.283zm4.691 4.41-4.408-4.41-.283.284 4.409 4.408.282-.282zm.31-.592-.592.592.282.282.592-.59-.283-.284zM8.45 8.141l4.41 4.41.282-.284-4.409-4.409-.283.283zM12.86 3.45 8.45 7.858l.283.283 4.409-4.408-.283-.283zm-.591-.309.59.592.284-.283-.592-.591-.283.282zM8.142 7.55 12.55 3.14l-.283-.282L7.86 7.267l.283.283zM3.45 3.14 7.86 7.55l.283-.283L3.733 2.86l-.283.282zm-.308.592.591-.592-.283-.282-.591.59.283.284zM7.55 7.858 3.142 3.45l-.283.283L7.267 8.14l.283-.283z" fill="#E2E2E2" mask="url(#8wh3ceq6da)"/>
</svg>
