<svg width="30" height="30" viewBox="0 0 30 30" fill="none" xmlns="http://www.w3.org/2000/svg">
    <path d="M15.004 11.29a3.715 3.715 0 1 0 0 7.429 3.715 3.715 0 0 0 0-7.43zm0 5.714a2 2 0 1 1 0-4 2 2 0 0 1 0 4zM22.998 9a2 2 0 0 0-2-2h-2.857v1.715h2.857a.285.285 0 0 1 .286.285v2.858h1.714V9zM21.284 20.998a.286.286 0 0 1-.286.286h-2.857v1.714h2.857a2 2 0 0 0 2-2v-2.857h-1.714v2.857zM7 20.998a2 2 0 0 0 2 2h2.858v-1.714H9a.286.286 0 0 1-.285-.286v-2.857H7v2.857zM7 9v2.858h1.715V9c0-.157.127-.285.285-.285h2.858V7H9a2 2 0 0 0-2 2z" fill="#D4ED3E"/>
</svg>
