<svg width="30" height="30" viewBox="0 0 30 30" fill="none" xmlns="http://www.w3.org/2000/svg">
    <path d="M22.697 11.269c-.055-.18-.13-.34-.227-.482a1.478 1.478 0 0 0-.344-.37 1.38 1.38 0 0 0-.455-.23 1.884 1.884 0 0 0-.56-.08c-.363 0-.687.093-.97.277-.284.184-.507.455-.67.812-.16.355-.24.787-.24 1.297 0 .515.08.95.24 1.308.16.357.384.629.67.815a1.8 1.8 0 0 0 .996.276c.343 0 .64-.066.89-.2a1.4 1.4 0 0 0 .584-.565c.137-.246.205-.535.205-.865l.277.043h-1.834v-.965H24v.819c0 .583-.123 1.088-.37 1.513a2.534 2.534 0 0 1-1.015.985c-.431.229-.926.343-1.485.343-.622 0-1.168-.14-1.64-.422a2.914 2.914 0 0 1-1.098-1.208c-.261-.524-.392-1.145-.392-1.863 0-.55.077-1.042.23-1.474.157-.433.375-.8.654-1.101.28-.304.607-.535.983-.692.376-.16.785-.24 1.227-.24.374 0 .722.055 1.046.166.323.109.61.264.86.466a2.547 2.547 0 0 1 .943 1.637h-1.246zM13 8.5a1.5 1.5 0 1 1 3 0 1.5 1.5 0 0 1-3 0z" fill="#fff"/>
    <path fill-rule="evenodd" clip-rule="evenodd" d="M14 8.5a.5.5 0 1 0 1 0 .5.5 0 0 0-1 0zm.5-1.5a1.5 1.5 0 1 0 0 3 1.5 1.5 0 0 0 0-3z" fill="#fff"/>
    <path d="M6 21.5a1.5 1.5 0 1 1 3 0 1.5 1.5 0 0 1-3 0z" fill="#fff"/>
    <path fill-rule="evenodd" clip-rule="evenodd" d="M7 21.5a.5.5 0 1 0 1 0 .5.5 0 0 0-1 0zm.5-1.5a1.5 1.5 0 1 0 0 3 1.5 1.5 0 0 0 0-3z" fill="#fff"/>
    <path d="M20 21.5a1.5 1.5 0 1 1 3 0 1.5 1.5 0 0 1-3 0z" fill="#fff"/>
    <path fill-rule="evenodd" clip-rule="evenodd" d="M21 21.5a.5.5 0 1 0 1 0 .5.5 0 0 0-1 0zm.5-1.5a1.5 1.5 0 1 0 0 3 1.5 1.5 0 0 0 0-3z" fill="#fff"/>
    <path fill-rule="evenodd" clip-rule="evenodd" d="M14.417 8c.322 0 .583.261.583.583v7.855l6.74 4.493a.583.583 0 0 1-.647.971l-6.645-4.43-5.5 4.4a.583.583 0 1 1-.73-.91l5.615-4.492V8.583c0-.322.261-.583.584-.583z" fill="#fff"/>
    <path opacity=".8" fill-rule="evenodd" clip-rule="evenodd" d="M13.356 13.171c.165.2.135.494-.067.657l-2.305 1.865a.116.116 0 0 0-.043.09v3.447c0 .044.025.084.064.104l3.403 1.72c.038.02.084.017.12-.007l2.737-1.846a.473.473 0 0 1 .653.123.464.464 0 0 1-.124.648l-2.737 1.846c-.32.216-.733.241-1.077.067l-3.402-1.72A1.048 1.048 0 0 1 10 19.23v-3.447c0-.315.143-.613.39-.813l2.304-1.865a.474.474 0 0 1 .662.066z" fill="#fff"/>
</svg>
