<svg width="22" height="22" viewBox="0 0 22 22" fill="none" xmlns="http://www.w3.org/2000/svg">
    <path d="M15.478 18.179a1.238 1.238 0 0 0 1.847-1.077V4.81a1.514 1.514 0 0 0-1.512-1.512h-8.8A1.514 1.514 0 0 0 5.5 4.809l9.978 13.37zm0 0 .15-.192-.177.176M6.121 3.917c.236-.237.557-.37.892-.37h8.8a1.264 1.264 0 0 1 1.263 1.263v12.292a.988.988 0 0 1-.828.975.988.988 0 0 1-.669-.128l-3.684-2.21a.937.937 0 0 0-.965 0l-3.684 2.21h-.001a.985.985 0 0 1-1.262-.206l-.18.154.18-.153a.984.984 0 0 1-.233-.64V4.81c0-.335.134-.656.37-.893z" stroke="#fff" stroke-width=".5"/>
</svg>
