<svg width="50" height="60" viewBox="0 0 50 60" fill="none" xmlns="http://www.w3.org/2000/svg">
    <mask id="usi7kkqlha" style="mask-type:luminance" maskUnits="userSpaceOnUse" x="10" y="6" width="30" height="30">
        <path d="M40 6H10v30h30V6z" fill="#fff"/>
    </mask>
    <g mask="url(#usi7kkqlha)">
        <path d="M30.5 12.75h-11a8.75 8.75 0 1 0 0 17.5h11a8.75 8.75 0 1 0 0-17.5z" stroke="#fff" stroke-width="1.5"/>
    </g>
    <path d="M23.793 48.425v-5.478h-.87v2.42h-1.297v-2.233h-.858v5.225h.858v-2.255h1.298v2.321h.869zm-3.938-4.862h-3.84v.737h2.938c-.033.352-.11.693-.231 1.034l-3.168.209.143.737 2.684-.275c-.528.847-1.463 1.529-2.794 2.046l.429.66c2.65-1.023 3.839-2.783 3.839-5.148zm3.938 5.291h-.891v1.144h-4.686v-1.144h-.891v3.828h6.468v-3.828zm-5.577 1.859h4.686v1.243h-4.686v-1.243zm15.509-4.345.308-.682c-1.804-.176-3.52-1.133-3.52-2.31v-.374h-.924v.374c0 1.177-1.727 2.134-3.531 2.31l.297.682c1.562-.209 3.08-.858 3.696-1.914.616 1.056 2.09 1.705 3.674 1.914zm-1.573 2.398v-1.034h2.354v-.726h-8.932v.726h2.354v1.034h-1.276v.682h5.819v.902h-5.786v2.354h6.974V52h-6.094v-.99h5.797v-2.244h-1.21zm-3.322-1.034h2.42v1.034h-2.42v-1.034z" fill="#F5F5F5"/>
    <path opacity=".5" d="M24.998 12.934v17.364l-8.027-.666-3.326-1.643-1.828-2.481-.919-4.254.922-3.156 1.828-2.868 3.326-2.3h8.024v.004z" fill="#fff"/>
</svg>
