<svg width="50" height="60" viewBox="0 0 50 60" fill="none" xmlns="http://www.w3.org/2000/svg">
    <rect width="50" height="60" rx="4" fill="#393939"/>
    <mask id="1473utmjra" style="mask-type:luminance" maskUnits="userSpaceOnUse" x="10" y="6" width="30" height="30">
        <path d="M40 6H10v30h30V6z" fill="#fff"/>
    </mask>
    <g mask="url(#1473utmjra)">
        <path d="M30.5 12.75h-11a8.75 8.75 0 1 0 0 17.5h11a8.75 8.75 0 1 0 0-17.5z" stroke="#E1F853" stroke-width="1.5"/>
    </g>
    <path d="M23.793 48.425h-.87v-2.321h-1.297v2.255h-.858v-5.225h.858v2.233h1.298v-2.42h.869v5.478zm-3.938-4.862c0 2.365-1.188 4.125-3.84 5.148l-.428-.66c1.33-.517 2.266-1.199 2.794-2.046l-2.684.275-.143-.737 3.168-.209c.12-.341.198-.682.23-1.034h-2.936v-.737h3.839zm3.938 5.291v3.828h-6.468v-3.828h.89v1.144h4.687v-1.144h.89zm-5.577 1.859v1.243h4.686v-1.243h-4.686zm15.509-4.345c-1.584-.209-3.058-.858-3.674-1.914-.616 1.056-2.134 1.705-3.696 1.914l-.297-.682c1.804-.176 3.531-1.133 3.531-2.31v-.374h.924v.374c0 1.177 1.716 2.134 3.52 2.31l-.308.682zm-1.573 2.398h1.21v2.244h-5.797V52h6.094v.704h-6.974V50.35h5.786v-.902h-5.819v-.682h1.276v-1.034h-2.354v-.726h8.932v.726h-2.354v1.034zm-3.322-1.034v1.034h2.42v-1.034h-2.42z" fill="#E1F853"/>
    <path opacity=".5" d="M24.998 12.934v17.364l-8.027-.666-3.326-1.643-1.828-2.481-.919-4.254.922-3.156 1.828-2.868 3.326-2.3h8.024v.004z" fill="#E1F853"/>
</svg>
