<svg width="50" height="60" viewBox="0 0 50 60" fill="none" xmlns="http://www.w3.org/2000/svg">
    <rect width="50" height="60" rx="4" fill="#393939"/>
    <mask id="p9fauorgka" style="mask-type:luminance" maskUnits="userSpaceOnUse" x="10" y="6" width="30" height="30">
        <path d="M40 6H10v30h30V6z" fill="#fff"/>
    </mask>
    <g mask="url(#p9fauorgka)" fill="#E1F853">
        <path d="M24.998 35.038a14.05 14.05 0 1 1-.03-28.101 14.05 14.05 0 0 1 .027 28.1h.003zm0-26.315a12.294 12.294 0 1 0-.026 24.588 12.294 12.294 0 0 0 .026-24.588z" stroke="#393939" stroke-width=".3"/>
        <path opacity=".5" fill-rule="evenodd" clip-rule="evenodd" d="M22.522 33.577c.699.923 1.527 1.46 2.48 1.46a.876.876 0 0 0 .62-1.497c-.044-.044-.093-.028-.145-.01-.044.014-.091.03-.14.01a.876.876 0 0 0-.336-.067c-1.43 0-3.509-4.976-3.509-12.47 0-7.494 2.082-12.313 3.512-12.313.232 0 .453-.06.617-.224a.877.877 0 0 0-.62-1.497c-.91 0-1.707.49-2.386 1.34l-2.275-.23-4 3.014-2.77 3-1.46 4.687v4.695l2.632 5.747 6.881 4.636.9-.281z"/>
    </g>
    <path d="M25.427 48.568v4.257h-.913v-4.257h-3.982v-.737h6.544c.308-1.419.308-2.464.308-3.388v-.132h-5.742v-.726h6.623v.858c0 .924 0 1.969-.276 3.388h1.463v.737h-4.026z" fill="#E1F853"/>
</svg>
