<svg width="50" height="60" viewBox="0 0 50 60" fill="none" xmlns="http://www.w3.org/2000/svg">
    <rect width="50" height="60" rx="4" fill="#393939"/>
    <mask id="0huaiapbka" style="mask-type:luminance" maskUnits="userSpaceOnUse" x="10" y="6" width="30" height="30">
        <path d="M40 6H10v30h30V6z" fill="#fff"/>
    </mask>
    <g mask="url(#0huaiapbka)">
        <path d="M25.005 10.992c7.213 0 13.06 4.48 13.06 10.006s-5.847 10.006-13.06 10.006-13.06-4.48-13.06-10.006 5.847-10.006 13.06-10.006z" stroke="#E1F853" stroke-width="1.5"/>
        <path d="M25.002 22.302c3.346 0 6.057-1.465 6.057-3.272 0-1.807-2.712-3.272-6.057-3.272s-6.057 1.465-6.057 3.272c0 1.807 2.712 3.272 6.057 3.272z" stroke="#E1F853" stroke-width="1.5" stroke-miterlimit="10"/>
        <path opacity=".5" fill-rule="evenodd" clip-rule="evenodd" d="m19.409 18.754-.02.75-.022.745.078.03 2.538 2.034.229.329a8.27 8.27 0 0 1 .94-.993l1 1.118a6.769 6.769 0 0 0-2.001 6.89l.532.996h-.977l-.698.285a8.24 8.24 0 0 1-.139-.364l-3.505-1.267-2.64-2.032-2.268-3.242-.463-.71L12.45 22l.03-.067-1.215-.119c.1-1.034.886-1.676 1.675-2.063.805-.395 1.808-.626 2.742-.767a22.49 22.49 0 0 1 2.564-.222 24.769 24.769 0 0 1 1.073-.01H19.408z" fill="#E1F853"/>
    </g>
    <path d="M24.42 51.571h-8.965v-.748h4.015v-2.53h-2.871v-4.554h6.688v.737H17.5v3.091h5.885v.726h-3.003v2.53h4.037v.748zm5.576-5.797v-.737h2.805v-2.09h.913v6.743h-.913v-3.916h-2.805zm1.408 2.112c-1.529.297-2.849.385-4.499.385h-.748v-4.675h.902v3.916c1.507 0 2.816-.099 4.235-.396l.11.77zm-.429 1.474c0 1.386 1.529 2.42 3.289 2.717l-.363.693c-1.474-.264-2.794-1.001-3.377-2.112-.583 1.111-1.958 1.859-3.41 2.123l-.363-.704c1.76-.297 3.322-1.32 3.322-2.717v-.418h.902v.418z" fill="#E1F853"/>
</svg>
