<svg width="50" height="60" viewBox="0 0 50 60" fill="none" xmlns="http://www.w3.org/2000/svg">
    <mask id="9czn37seia" style="mask-type:luminance" maskUnits="userSpaceOnUse" x="10" y="6" width="30" height="30">
        <path d="M40 6H10v30h30V6z" fill="#fff"/>
    </mask>
    <g mask="url(#9czn37seia)">
        <path d="M23.74 6.337a3.738 3.738 0 0 1 2.525 0l11.25 4.02A3.752 3.752 0 0 1 40 13.89v14.226a3.755 3.755 0 0 1-2.49 3.533l-11.25 4.02a3.738 3.738 0 0 1-2.525 0l-11.25-4.02A3.75 3.75 0 0 1 10 28.116V13.89a3.754 3.754 0 0 1 2.49-3.533l11.25-4.02zM25 9.87l-9.2 3.712 9.2 3.42 9.2-3.42L25 9.87zm1.875 21.6 9.375-3.346V17.103l-1.139.407-8.236 2.939v11.02z" fill="#fff" stroke="#282828" stroke-width="2.5" stroke-linecap="round"/>
    </g>
    <path d="M22.044 48.942h2.354v-.737h-1.496c.352-1.595.352-2.739.352-3.762v-.902h-6.666v.737h5.797v.759c0 .209-.011.418-.022.627l-6.061.231.132.759 5.874-.286A10.829 10.829 0 0 1 22 48.205h-6.523v.737h2.288v3.872h.913v-3.872h2.464v3.872h.902v-3.872zm5.488-3.476v-1.804h-.891v5.137h6.809v-5.137h-.88v1.804h-5.038zm5.038 2.596h-5.038v-1.87h5.038v1.87zm1.958 3.443v-.748h-8.943v.748h8.943z" fill="#F5F5F5"/>
    <path d="M24.191 19.742v13.291l-11.457-4.312v-13.19l11.457 4.211z" fill="#959595"/>
</svg>
