<svg width="50" height="60" viewBox="0 0 50 60" fill="none" xmlns="http://www.w3.org/2000/svg">
    <rect width="50" height="60" rx="4" fill="#393939"/>
    <path d="M17.993 47.699v5.115h-.902v-9.867h.902v4.004h1.584v.748h-1.584zm-2.508-3.729c0 2.86-.979 5.467-4.499 7.227l-.495-.693c1.837-.913 2.904-2.013 3.52-3.344l-3.322.319-.154-.792 3.751-.253c.165-.55.264-1.122.297-1.727H11.03v-.737h4.455zm13.42 8.833h-.858v-9.856h.857v9.856zm-1.959-9.636v9.152h-.858v-4.906h-1.463v2.75h-3.75v-6.072h3.75v2.574h1.463v-3.498h.858zm-5.225 1.639v4.642h2.069v-4.642H21.72zm16.522 2.816v5.203h-.902v-9.889h.902v3.927h1.617v.759h-1.617zm-6.314 2.068c1.793 0 3.069-.055 4.543-.352l.099.748c-1.551.264-2.86.352-4.741.352h-.781v-3.773h3.542v-2.068h-3.575v-.737h4.466v3.542h-3.553v2.288z" fill="#E1F853"/>
    <mask id="pqga3mijwa" style="mask-type:luminance" maskUnits="userSpaceOnUse" x="14" y="10" width="22" height="22">
        <path d="M36 10H14v22h22V10z" fill="#fff"/>
    </mask>
    <g mask="url(#pqga3mijwa)">
        <path d="m20.885 13.638-.4 1.2h-2.88a2.468 2.468 0 0 0-2.464 2.467v9.862a2.468 2.468 0 0 0 2.465 2.465h14.793a2.468 2.468 0 0 0 2.465-2.465v-9.862a2.468 2.468 0 0 0-2.465-2.466H29.52l-.4-1.2a1.844 1.844 0 0 0-1.753-1.264H22.64a1.844 1.844 0 0 0-1.756 1.263zm4.118 4.9a3.7 3.7 0 1 1 0 7.399 3.7 3.7 0 0 1 0-7.399z" stroke="#E1F853" stroke-width="1.5"/>
    </g>
</svg>
