<svg width="50" height="60" viewBox="0 0 50 60" fill="none" xmlns="http://www.w3.org/2000/svg">
    <rect width="50" height="60" rx="4" fill="#393939"/>
    <mask id="1opot273qa" style="mask-type:luminance" maskUnits="userSpaceOnUse" x="10" y="6" width="30" height="30">
        <path d="M40 6H10v30h30V6z" fill="#fff"/>
    </mask>
    <g mask="url(#1opot273qa)">
        <path d="M23.74 6.337a3.738 3.738 0 0 1 2.525 0l11.25 4.02A3.752 3.752 0 0 1 40 13.89v14.226a3.755 3.755 0 0 1-2.49 3.533l-11.25 4.02a3.738 3.738 0 0 1-2.525 0l-11.25-4.02A3.75 3.75 0 0 1 10 28.116V13.89a3.754 3.754 0 0 1 2.49-3.533l11.25-4.02zM25 9.87l-9.2 3.712 9.2 3.42 9.2-3.42L25 9.87zm1.875 21.6 9.375-3.346V17.103l-1.139.407-8.236 2.939v11.02z" fill="#E1F853" stroke="#393939" stroke-width="2.5" stroke-linecap="round"/>
    </g>
    <path d="M22.044 48.942v3.872h-.902v-3.872h-2.464v3.872h-.913v-3.872h-2.288v-.737H22c.176-.704.264-1.276.308-1.837l-5.874.286-.132-.759 6.06-.231c.012-.209.023-.418.023-.627v-.759h-5.797v-.737h6.666v.902c0 1.023 0 2.167-.352 3.762h1.496v.737h-2.354zm5.488-3.476h5.038v-1.804h.88v5.137h-6.809v-5.137h.891v1.804zm5.038 2.596v-1.87h-5.038v1.87h5.038zm1.958 3.443h-8.943v-.748h8.943v.748z" fill="#E1F853"/>
    <path d="M24.191 19.742v13.291l-11.457-4.312v-13.19l11.457 4.211z" fill="#8E9946"/>
</svg>
