<svg width="63" height="60" viewBox="0 0 63 60" fill="none" xmlns="http://www.w3.org/2000/svg">
    <rect width="63" height="60" rx="4" fill="#393939" />
    <path d="M14.386 46.606v5.203h-.902V41.92h.902v3.927h1.617v.76h-1.617zm-6.314 2.068c1.793 0 3.07-.055 4.543-.352l.1.748c-1.552.264-2.86.352-4.742.352h-.78V45.65h3.541v-2.068H7.16v-.737h4.466v3.542H8.072v2.288zm16.906 3.146h-.902v-9.889h.902v9.89zm-5.203-9.13c1.463 0 2.508 1.342 2.508 3.443s-1.045 3.443-2.508 3.443-2.508-1.342-2.508-3.443c0-2.1 1.045-3.443 2.508-3.443zm0 .814c-.968 0-1.65 1.034-1.65 2.63 0 1.605.682 2.64 1.65 2.64.957 0 1.64-1.035 1.64-2.64 0-1.596-.683-2.63-1.64-2.63zm9.195.946h5.038v-1.804h.88v5.137H28.08v-5.137h.891v1.804zm5.038 2.596v-1.87H28.97v1.87h5.038zm1.958 3.443h-8.943v-.748h8.943v.748zm9.295 1.32h-.902v-5.346h-1.881v-.737h1.88V41.92h.903v9.89zm-6.864-3.124c1.683 0 2.882-.055 4.3-.319l.089.748c-1.485.264-2.74.32-4.521.32h-.76v-3.862h3.51v-1.99h-3.531v-.738h4.41v3.454h-3.497v2.387zm16.96 3.124h-.901V41.92h.902v9.89zm-6.621-3.135c1.617 0 3.08-.088 4.796-.352l.088.737c-1.793.297-3.267.363-4.972.363h-.814v-3.784h3.63v-2.057H47.8v-.737h4.576v3.531h-3.641v2.3z"
          fill="#D4ED3E" />
    <path fill-rule="evenodd" clip-rule="evenodd"
          d="M37 11.484h2a.5.5 0 0 1 .5.5v18a.5.5 0 0 1-.5.5H23a.5.5 0 0 1-.5-.5v-18a.5.5 0 0 1 .5-.5h9v10.5h.151l2.351-2.953 2.347 2.953H37v-10.5zm-16 .5a2 2 0 0 1 2-2h16a2 2 0 0 1 2 2v18a2 2 0 0 1-2 2H23a2 2 0 0 1-2-2v-18z"
          fill="#D4ED3E" />
</svg>
