<svg width="50" height="60" viewBox="0 0 50 60" fill="none" xmlns="http://www.w3.org/2000/svg">
    <rect width="50" height="60" rx="4" fill="#393939"/>
    <mask id="x9c8evljga" style="mask-type:luminance" maskUnits="userSpaceOnUse" x="10" y="6" width="30" height="30">
        <path d="M40 6H10v30h30V6z" fill="#fff"/>
    </mask>
    <g mask="url(#x9c8evljga)">
        <path d="M39.02 28.133a1.025 1.025 0 0 0-2.043.09c0 2.565-5.358 4.646-11.97 4.646-6.61 0-11.971-2.08-11.971-4.646v-.045a1.024 1.024 0 0 0-2.043-.126c-.011.11-.016.21-.016.321 0 3.676 6.28 6.655 14.026 6.655 7.746 0 14.026-2.979 14.026-6.655 0-.08 0-.16-.01-.24z" fill="#E1F853" stroke="#393939" stroke-width=".5"/>
        <path d="M37.973 28.274 25.986 8.533a1.176 1.176 0 0 0-1.969 0L12 28.273" stroke="#E1F853" stroke-width="1.5" stroke-miterlimit="10"/>
        <path opacity=".5" d="m25.004 8.547-5.799 24.872-6.256-2.066-.894-3.072L25.004 8.547z" fill="#E1F853"/>
    </g>
    <path d="M22.638 42.947h.902v7.513h-.902v-1.012h-2.002v-.671h2.002v-5.83zm-4.015 3.839c-1.441 0-2.431-.671-2.431-1.727 0-1.034.99-1.716 2.43-1.716 1.442 0 2.432.682 2.432 1.716 0 1.056-.99 1.727-2.431 1.727zm0-2.772c-.935 0-1.573.418-1.573 1.045 0 .66.638 1.056 1.573 1.056.935 0 1.573-.396 1.573-1.056 0-.627-.638-1.045-1.573-1.045zm-.352 4.191c-.98.044-1.903.055-2.74.055l-.12-.748c1.826 0 4.268-.022 6.358-.286l.077.649c-.88.132-1.782.231-2.673.286v1.947h-.902v-1.903zm5.522 4.389h-6.974v-2.871h.902v2.134h6.072v.737zm6.621-6.138v-3.355h.836v.968h1.562v-.968h.858v3.355h-3.256zm-3.993 0v-3.355h.858v.968h1.54v-.968h.858v3.355h-3.256zm4.829-1.716v1.034h1.562V44.74H31.25zm-3.971 0v1.034h1.54V44.74h-1.54zm3.201 4.147h2.882v2.178h-5.797v.946h6.094v.693h-6.974v-2.288h5.786v-.847h-5.819v-.682h2.926v-.913h-3.993v-.726h8.921v.726H30.48v.913z" fill="#E1F853"/>
</svg>
