<svg width="50" height="60" viewBox="0 0 50 60" fill="none" xmlns="http://www.w3.org/2000/svg">
    <mask id="8e6hvz002a" style="mask-type:luminance" maskUnits="userSpaceOnUse" x="10" y="6" width="30" height="30">
        <path d="M40 6H10v30h30V6z" fill="#fff"/>
    </mask>
    <g mask="url(#8e6hvz002a)">
        <path d="M39.02 28.133a1.025 1.025 0 0 0-2.043.09c0 2.565-5.358 4.646-11.97 4.646-6.61 0-11.971-2.08-11.971-4.646v-.045a1.024 1.024 0 0 0-2.043-.126c-.011.11-.016.21-.016.321 0 3.676 6.28 6.655 14.026 6.655 7.746 0 14.026-2.979 14.026-6.655 0-.08 0-.16-.01-.24z" fill="#fff" stroke="#282828" stroke-width=".5"/>
        <path d="M37.973 28.274 25.986 8.533a1.176 1.176 0 0 0-1.969 0L12 28.273" stroke="#fff" stroke-width="1.5" stroke-miterlimit="10"/>
        <path opacity=".5" d="m25.004 8.547-5.799 24.872-6.256-2.066-.894-3.072L25.004 8.547z" fill="#fff"/>
    </g>
    <path d="M22.638 42.947v5.83h-2.002v.671h2.002v1.012h.902v-7.513h-.902zm-4.015 3.839c1.44 0 2.43-.671 2.43-1.727 0-1.034-.99-1.716-2.43-1.716-1.441 0-2.431.682-2.431 1.716 0 1.056.99 1.727 2.43 1.727zm0-2.772c.935 0 1.573.418 1.573 1.045 0 .66-.638 1.056-1.573 1.056-.935 0-1.573-.396-1.573-1.056 0-.627.638-1.045 1.573-1.045zm-.352 4.191v1.903h.902v-1.947a31.004 31.004 0 0 0 2.673-.286l-.077-.649c-2.09.264-4.532.286-6.358.286l.12.748c.837 0 1.76-.011 2.74-.055zm5.522 4.389v-.737H17.72v-2.134h-.902v2.871h6.974zm6.621-6.138h3.256v-3.355h-.858v.968H31.25v-.968h-.836v3.355zm-3.993 0h3.256v-3.355h-.858v.968h-1.54v-.968h-.858v3.355zm4.829-1.716h1.562v1.034H31.25V44.74zm-3.971 0h1.54v1.034h-1.54V44.74zm3.201 4.147v-.913h4.026v-.726h-8.921v.726h3.993v.913h-2.926v.682h5.819v.847h-5.786v2.288h6.974v-.693h-6.094v-.946h5.797v-2.178H30.48z" fill="#F5F5F5"/>
</svg>
