<svg width="50" height="60" viewBox="0 0 50 60" fill="none" xmlns="http://www.w3.org/2000/svg">
    <mask id="uqtwq21zsa" style="mask-type:luminance" maskUnits="userSpaceOnUse" x="10" y="6" width="30" height="30">
        <path d="M40 6H10v30h30V6z" fill="#fff"/>
    </mask>
    <g mask="url(#uqtwq21zsa)" fill="#fff">
        <path d="M33.846 26.682v2.66c0 2.057-3.96 3.724-8.846 3.724s-8.846-1.666-8.846-3.723V26.68a3.701 3.701 0 0 0-1.521 2.782c0 2.945 4.64 5.333 10.366 5.333 5.725 0 10.366-2.388 10.366-5.333a3.7 3.7 0 0 0-1.52-2.78zM24.999 16.73c5.725 0 10.366-2.13 10.366-4.76 0-2.628-4.641-4.76-10.366-4.76s-10.366 2.132-10.366 4.76c0 2.63 4.64 4.76 10.366 4.76zm0-8.13c4.855 0 8.79 1.489 8.79 3.324 0 1.835-3.935 3.323-8.79 3.323-4.855 0-8.791-1.488-8.791-3.323S20.144 8.6 24.998 8.6z" stroke="#282828" stroke-width=".3"/>
        <path d="M15.997 11.922h-1.2v17.536h1.2V11.922zM35.2 11.922H34v17.536h1.2V11.922z"/>
        <path opacity=".5" d="m15.594 14.235.248 16.534 2.93 2.631 6.011.605V15.653h-4.26l-4.433-1.419-.496.001z"/>
    </g>
    <path d="M17.575 42.947v5.83h-2.002v.671h2.002v1.012h.902v-7.513h-.902zm-4.015 3.839c1.441 0 2.431-.671 2.431-1.727 0-1.034-.99-1.716-2.43-1.716-1.442 0-2.432.682-2.432 1.716 0 1.056.99 1.727 2.431 1.727zm0-2.772c.935 0 1.573.418 1.573 1.045 0 .66-.638 1.056-1.573 1.056-.935 0-1.573-.396-1.573-1.056 0-.627.638-1.045 1.573-1.045zm-.352 4.191v1.903h.902v-1.947a31.004 31.004 0 0 0 2.673-.286l-.077-.649c-2.09.264-4.532.286-6.358.286l.121.748c.836 0 1.76-.011 2.74-.055zm5.522 4.389v-.737h-6.072v-2.134h-.902v2.871h6.974zm9.889.22v-9.867h-.902v9.867h.902zm-2.893-8.8h-4.62v.726h3.706c-.187 2.343-1.507 4.235-4.158 5.5l.485.737c3.288-1.617 4.587-4.114 4.587-6.963zm6.038 2.64h6.765v-.726h-5.863v-1.804h5.797v-.726h-6.7v3.256zm3.795 2.596v-.946h4.015v-.737h-8.932v.737h4.015v.946c-1.892.088-2.937.715-2.937 1.771 0 1.155 1.276 1.782 3.388 1.782 2.09 0 3.366-.627 3.366-1.782 0-1.056-1.056-1.683-2.915-1.771zm2.002 1.771c0 .704-.902 1.089-2.453 1.089-1.595 0-2.475-.385-2.475-1.089s.88-1.078 2.475-1.078c1.55 0 2.453.374 2.453 1.078z" fill="#F5F5F5"/>
</svg>
