<svg width="50" height="60" viewBox="0 0 50 60" fill="none" xmlns="http://www.w3.org/2000/svg">
    <mask id="77bljce4qa" style="mask-type:luminance" maskUnits="userSpaceOnUse" x="10" y="6" width="30" height="30">
        <path d="M40 6H10v30h30V6z" fill="#fff"/>
    </mask>
    <g mask="url(#77bljce4qa)">
        <path d="M25.005 10.992c7.213 0 13.06 4.48 13.06 10.006s-5.847 10.006-13.06 10.006-13.06-4.48-13.06-10.006 5.847-10.006 13.06-10.006z" stroke="#fff" stroke-width="1.5"/>
        <path d="M25.002 22.302c3.346 0 6.057-1.465 6.057-3.272 0-1.807-2.712-3.272-6.057-3.272s-6.057 1.465-6.057 3.272c0 1.807 2.712 3.272 6.057 3.272z" stroke="#fff" stroke-width="1.5" stroke-miterlimit="10"/>
        <path opacity=".5" fill-rule="evenodd" clip-rule="evenodd" d="m19.409 18.754-.02.75-.022.745.078.03 2.538 2.034.229.329a8.27 8.27 0 0 1 .94-.993l1 1.118a6.769 6.769 0 0 0-2.001 6.89l.532.996h-.977l-.698.285a8.24 8.24 0 0 1-.139-.364l-3.505-1.267-2.64-2.032-2.268-3.242-.463-.71L12.45 22l.03-.067-1.215-.119c.1-1.034.886-1.676 1.675-2.063.805-.395 1.808-.626 2.742-.767a22.49 22.49 0 0 1 2.564-.222 24.769 24.769 0 0 1 1.073-.01H19.408z" fill="#fff"/>
    </g>
    <path d="M24.42 51.571v-.748h-4.037v-2.53h3.003v-.726H17.5v-3.091h5.786v-.737h-6.688v4.554h2.87v2.53h-4.014v.748h8.965zm5.576-5.797h2.805v3.916h.913v-6.743h-.913v2.09h-2.805v.737zm1.408 2.112-.11-.77c-1.419.297-2.728.396-4.235.396v-3.916h-.902v4.675h.748c1.65 0 2.97-.088 4.499-.385zm-.429 1.474v-.418h-.902v.418c0 1.397-1.562 2.42-3.322 2.717l.363.704c1.452-.264 2.827-1.012 3.41-2.123.583 1.111 1.903 1.848 3.377 2.112l.363-.693c-1.76-.297-3.289-1.331-3.289-2.717z" fill="#F5F5F5"/>
</svg>
