<svg width="30" height="30" viewBox="0 0 30 30" fill="none" xmlns="http://www.w3.org/2000/svg">
<mask id="mask0_205_53642" style="mask-type:luminance" maskUnits="userSpaceOnUse" x="4" y="4" width="22" height="22">
<path d="M26 4H4V26H26V4Z" fill="white"/>
</mask>
<g mask="url(#mask0_205_53642)">
<path d="M14.0933 18.4732C14.2129 18.5931 14.355 18.6883 14.5114 18.7532C14.6679 18.8181 14.8356 18.8516 15.005 18.8516C15.1744 18.8516 15.3421 18.8181 15.4985 18.7532C15.655 18.6883 15.7971 18.5931 15.9167 18.4732L21.0595 13.3304C21.3015 13.0886 21.4374 12.7606 21.4375 12.4185C21.4376 12.0765 21.3018 11.7484 21.06 11.5065C20.8182 11.2646 20.4902 11.1286 20.1482 11.1285C19.8061 11.1285 19.4781 11.2642 19.2362 11.506L16.2907 14.4524V5.98635C16.2907 5.64536 16.1552 5.31833 15.9141 5.07721C15.673 4.83609 15.346 4.70064 15.005 4.70064C14.664 4.70064 14.337 4.83609 14.0959 5.07721C13.8547 5.31833 13.7193 5.64536 13.7193 5.98635L13.7193 14.4524L10.7701 11.5032C10.6501 11.3838 10.5078 11.2891 10.3512 11.2246C10.1947 11.1601 10.0269 11.1271 9.85762 11.1275C9.6883 11.1278 9.52071 11.1615 9.36442 11.2266C9.20812 11.2917 9.06618 11.387 8.9467 11.507C8.82723 11.6269 8.73255 11.7693 8.66807 11.9258C8.6036 12.0824 8.57059 12.2501 8.57094 12.4194C8.57129 12.5888 8.60498 12.7563 8.6701 12.9126C8.73521 13.0689 8.83047 13.2109 8.95044 13.3304L14.0933 18.4732Z" fill="white" stroke="#282828"/>
<path d="M8.57143 18.8491C8.57143 18.5082 8.43597 18.1811 8.19485 17.94C7.95373 17.6989 7.62671 17.5634 7.28571 17.5634C6.94472 17.5634 6.6177 17.6989 6.37658 17.94C6.13546 18.1811 6 18.5082 6 18.8491V21.4206C6.0005 22.4433 6.40706 23.424 7.13034 24.1471C7.85361 24.8702 8.8344 25.2765 9.85714 25.2768H20.1429C21.1658 25.2765 22.1467 24.8701 22.87 24.1468C23.5933 23.4235 23.9998 22.4425 24 21.4196V18.8482C24 18.5072 23.8645 18.1802 23.6234 17.9391C23.3823 17.698 23.0553 17.5625 22.7143 17.5625C22.3733 17.5625 22.0463 17.698 21.8051 17.9391C21.564 18.1802 21.4286 18.5072 21.4286 18.8482V21.4196C21.4287 21.5885 21.3955 21.7558 21.331 21.9118C21.2664 22.0679 21.1717 22.2096 21.0523 22.3291C20.9329 22.4485 20.7911 22.5432 20.635 22.6077C20.479 22.6723 20.3117 22.7055 20.1429 22.7054H9.85714C9.68834 22.7055 9.52118 22.6723 9.36519 22.6078C9.20921 22.5433 9.06746 22.4487 8.94806 22.3294C8.82866 22.2101 8.73394 22.0684 8.66932 21.9125C8.60469 21.7565 8.57143 21.5894 8.57143 21.4206V18.8491Z" fill="white" stroke="#282828"/>
</g>
</svg>
