<svg width="16" height="16" viewBox="0 0 16 16" fill="none" xmlns="http://www.w3.org/2000/svg">
    <path d="M9.556 9.68c0-.63 0-.945-.103-1.185a1.053 1.053 0 0 0-.414-.49c-.203-.123-.468-.123-1-.123H6.018c-.531 0-.797 0-1 .122-.178.108-.323.28-.414.491-.103.24-.103.555-.103 1.184v.15c0 .63 0 .944.103 1.185.091.211.236.383.415.49.202.123.468.123.999.123H8.04c.53 0 .796 0 .999-.122.178-.108.323-.28.414-.491.103-.24.103-.555.103-1.185v-.15z" fill="#E2E2E2"/>
    <path d="M11.5 6.061c0-.925-.29-1.686-1.491-1.686-1.229 0-1.4 1.349-1.4 2.383v1.124m-.57 3.745H6.018c-.531 0-.797 0-1-.122a1.053 1.053 0 0 1-.414-.491c-.103-.24-.103-.555-.103-1.185v-.15c0-.629 0-.944.103-1.184.091-.211.236-.383.415-.49.202-.123.468-.123.999-.123H8.04c.53 0 .796 0 .999.122.178.108.323.28.414.491.103.24.103.555.103 1.184v.15c0 .63 0 .944-.103 1.185-.09.211-.236.383-.414.49-.203.123-.468.123-1 .123z" stroke="#E2E2E2" stroke-linecap="round" stroke-linejoin="round"/>
</svg>
