<svg width="16" height="16" viewBox="0 0 16 16" fill="none" xmlns="http://www.w3.org/2000/svg">
    <path d="M2.518.797c-.612 0-1.12.508-1.12 1.12v12.16c0 .612.508 1.12 1.12 1.12h6.16c.613 0 1.12-.508 1.12-1.12v-2.56a.48.48 0 1 0-.96 0v2.56c0 .097-.063.16-.16.16h-6.16c-.096 0-.16-.063-.16-.16V1.917c0-.097.063-.16.16-.16h6.16c.097 0 .16.063.16.16v2.56a.48.48 0 1 0 .96 0v-2.56c0-.612-.507-1.12-1.12-1.12h-6.16zm9.305 3.995a.48.48 0 0 0-.315.79l1.595 1.935H6.478a.48.48 0 0 0-.459.687.48.48 0 0 0 .46.273h6.624l-1.595 1.935a.48.48 0 1 0 .74.61l2.24-2.72a.48.48 0 0 0 0-.61l-2.24-2.72a.48.48 0 0 0-.425-.18z" fill="#fff"/>
</svg>
