<svg width="30" height="30" viewBox="0 0 30 30" fill="none" xmlns="http://www.w3.org/2000/svg">
    <mask id="3mm7tt2pwa" style="mask-type:luminance" maskUnits="userSpaceOnUse" x="7" y="7" width="16" height="16">
        <path d="M23 7H7v16h16V7z" fill="#fff"/>
    </mask>
    <g mask="url(#3mm7tt2pwa)" fill="#fff">
        <path d="M14.956 23.04a8.043 8.043 0 1 0 0-16.087.561.561 0 0 0 0 1.122 6.9 6.9 0 1 1-3.464.92.474.474 0 0 0 .112-.1l.045-.06a.834.834 0 0 0 .06-.112v-.2a.582.582 0 0 0 0-.112.44.44 0 0 0 0-.1v-.056l-.045-.067-.067-.075-.1-.075h-.073l-.135-.075-2.993-.194a.584.584 0 0 0-.6.524.56.56 0 0 0 .524.6l1.5.1a8.029 8.029 0 0 0 5.238 14.052l-.002-.005z"/>
        <path d="M14.952 9.352a.57.57 0 0 0-.561.56v5.09a.531.531 0 0 0 .157.383l2.993 3.15a.554.554 0 0 0 .912-.172.562.562 0 0 0-.112-.606l-2.832-2.995v-4.85a.569.569 0 0 0-.561-.56h.004z"/>
    </g>
</svg>
