<svg width="16" height="16" viewBox="0 0 16 16" fill="none" xmlns="http://www.w3.org/2000/svg">
    <path d="M5 9.689c0-.747 0-1.12.123-1.405.107-.251.28-.455.491-.583.24-.145.556-.145 1.186-.145h2.4c.63 0 .945 0 1.186.145.211.128.384.332.491.583.123.285.123.658.123 1.405v.178c0 .746 0 1.12-.123 1.405a1.25 1.25 0 0 1-.491.583C10.146 12 9.83 12 9.2 12H6.8c-.63 0-.945 0-1.186-.145a1.25 1.25 0 0 1-.491-.583C5 10.987 5 10.613 5 9.867v-.178z" fill="#E2E2E2"/>
    <path d="M9.875 7.556V6.222C9.875 4.995 9.035 4 8 4c-1.036 0-1.875.995-1.875 2.222v1.334M6.8 12h2.4c.63 0 .945 0 1.186-.145a1.25 1.25 0 0 0 .491-.583c.123-.285.123-.659.123-1.405v-.178c0-.747 0-1.12-.123-1.405a1.25 1.25 0 0 0-.491-.583c-.24-.145-.556-.145-1.186-.145H6.8c-.63 0-.945 0-1.186.145a1.25 1.25 0 0 0-.491.583C5 8.569 5 8.942 5 9.689v.178c0 .746 0 1.12.123 1.405.107.25.28.455.491.583C5.854 12 6.17 12 6.8 12z" stroke="#E2E2E2" stroke-linecap="round" stroke-linejoin="round"/>
</svg>
