<svg width="16" height="16" viewBox="0 0 16 16" fill="none" xmlns="http://www.w3.org/2000/svg">
    <path d="M7.58 3.065c.272-.097.57-.097.842 0l3.75 1.34A1.25 1.25 0 0 1 13 5.583v4.742a1.25 1.25 0 0 1-.83 1.178l-3.75 1.34c-.272.097-.57.097-.842 0l-3.75-1.34A1.25 1.25 0 0 1 3 10.325V5.583a1.251 1.251 0 0 1 .83-1.178l3.75-1.34zM8 4.243 4.933 5.48 8 6.62l3.067-1.14L8 4.243zm.625 7.2 3.125-1.115V6.654l-.38.136-2.745.98v3.673z" fill="#959595" stroke="#282828" stroke-width=".5" stroke-linecap="round"/>
</svg>
