<svg width="16" height="16" viewBox="0 0 16 16" fill="none" xmlns="http://www.w3.org/2000/svg">
    <mask id="ixtopg042a" style="mask-type:luminance" maskUnits="userSpaceOnUse" x="2" y="7" width="12" height="7">
        <path d="M2.5 12.75v-5h11v5h-11z" fill="#fff" stroke="#fff"/>
    </mask>
    <g mask="url(#ixtopg042a)" stroke="#E2E2E2">
        <path d="M7.993 10.99a4.58 4.58 0 0 1-2.84-1.235A11.905 11.905 0 0 1 3.17 7.55a1.009 1.009 0 0 1 0-1.163A11.904 11.904 0 0 1 5.153 4.18a4.58 4.58 0 0 1 2.84-1.235 4.58 4.58 0 0 1 2.84 1.235c.752.65 1.418 1.39 1.985 2.206a1.009 1.009 0 0 1 0 1.163 11.907 11.907 0 0 1-1.984 2.206 4.581 4.581 0 0 1-2.84 1.235z"/>
        <path d="M8.031 11.375v1.091M4.944 10.117l-.6 1.135M11.156 10.117l.6 1.135" stroke-linecap="round"/>
    </g>
</svg>
