<svg width="16" height="16" viewBox="0 0 16 16" fill="none" xmlns="http://www.w3.org/2000/svg">
    <path d="M9.725 8.36a1.725 1.725 0 1 1-3.45 0 1.725 1.725 0 0 1 3.45 0z" fill="#E2E2E2" stroke="#282828" stroke-width=".3"/>
    <path d="M8.004 4.867c-1.04 0-2.041.403-2.792 1.123a11.307 11.307 0 0 0-1.954 2.006.863.863 0 0 0 0 1.059 11.17 11.17 0 0 0 1.954 2.01 4.032 4.032 0 0 0 5.583 0 11.07 11.07 0 0 0 1.954-2.01.863.863 0 0 0 0-1.059 11.202 11.202 0 0 0-1.954-2.006 4.027 4.027 0 0 0-2.79-1.123zm0 0L8 3.5m3.363 1.078-.688 1.245M4.509 4.578l.693 1.245" stroke="#E2E2E2" stroke-linecap="round" stroke-linejoin="round"/>
</svg>
