<svg width="30" height="30" viewBox="0 0 30 30" fill="none" xmlns="http://www.w3.org/2000/svg">
    <path d="M12.627 22.553v.001h5.824a.463.463 0 0 0 .463-.462V17.35a.463.463 0 0 0-.463-.462h-5.723a2.161 2.161 0 0 1 0-4.323h5.723a.463.463 0 0 0 .463-.462V7.363a.463.463 0 0 0-.462-.463h-5.725a7.827 7.827 0 0 0-5.535 13.362l.062-.062-.062.062a7.827 7.827 0 0 0 5.435 2.291zm.1-10.912h-.1v.002a3.087 3.087 0 0 0-2.573 4.627 3.086 3.086 0 0 0 2.673 1.543h1.797v3.816h-1.847a6.901 6.901 0 0 1-5.927-3.45l-.087.05.087-.05a6.901 6.901 0 0 1 5.977-10.353H14.524v3.815h-1.797zm5.262 6.172v3.816h-2.54v-3.816h2.54zm0-9.988v3.816h-2.54V7.825h2.54z" fill="#fff" stroke="#fff" stroke-width=".2"/>
    <path fill-rule="evenodd" clip-rule="evenodd" d="M22 18.695c-.007.118.046.229.13.279.086.05.188.027.255-.055l3.435-3.98c.064-.08.085-.2.051-.307-.033-.105-.114-.176-.204-.18l-.676-.02a.212.212 0 0 1-.166-.098.336.336 0 0 1-.053-.22c.098-1.01 1.226-3.796 1.226-3.796.012-.12-.038-.236-.124-.289-.086-.053-.19-.032-.259.053l-3.435 3.977a.338.338 0 0 0-.056.29c.027.103.098.178.183.193l.616.109c.118.02.203.153.194.302-.058.95-1.116 3.742-1.116 3.742z" fill="#fff"/>
</svg>
