<svg width="30" height="30" viewBox="0 0 30 30" fill="none" xmlns="http://www.w3.org/2000/svg">
    <mask id="x8vvsnjnya" style="mask-type:luminance" maskUnits="userSpaceOnUse" x="7" y="7" width="16" height="16">
        <path d="M23 7H7v16h16V7z" fill="#e3f853"/>
    </mask>
    <g mask="url(#x8vvsnjnya)">
        <path d="M21.278 18.504V15a.57.57 0 0 0-.571-.57H15.57v-2.936a2.283 2.283 0 1 0-1.142 0v2.935H9.29A.571.571 0 0 0 8.72 15v3.506a2.283 2.283 0 1 0 1.142 0V15.57h4.567v2.935a2.283 2.283 0 1 0 1.142 0V15.57h4.566v2.935a2.283 2.283 0 1 0 1.14 0zm-7.42-9.213a1.144 1.144 0 1 1 2.287-.002 1.144 1.144 0 0 1-2.287.002zm-3.425 11.415a1.143 1.143 0 1 1-2.285.004 1.143 1.143 0 0 1 2.285-.004zm5.708 0a1.143 1.143 0 1 1-2.285.004 1.143 1.143 0 0 1 2.285-.004zm4.566 1.142a1.142 1.142 0 1 1-.004-2.284 1.142 1.142 0 0 1 .004 2.284z" fill="#e3f853"/>
    </g>
</svg>
