<svg width="32" height="32" viewBox="0 0 32 32" fill="none" xmlns="http://www.w3.org/2000/svg">
    <path d="M16 18.5a2.5 2.5 0 1 1 0-5 2.5 2.5 0 0 1 0 5z" stroke="#E2E2E2" stroke-width="1.4"/>
    <path d="M17.72 9.537a2.744 2.744 0 0 0 1.3 1.761l.55-.952a1.644 1.644 0 0 1-.783-1.057l-1.068.248zm1.3 1.761a2.74 2.74 0 0 0 2 .295l-.253-1.07a1.641 1.641 0 0 1-1.2-.177l-.548.952zm4.415 2.1a7.874 7.874 0 0 0-1.452-2.527l-.835.715c.55.64.974 1.377 1.252 2.173l1.035-.36zm-1.027 2.6a1.644 1.644 0 0 1 .6-1.273l-.7-.848a2.74 2.74 0 0 0-1 2.121h1.1zm.6 1.273a1.645 1.645 0 0 1-.6-1.273h-1.1a2.741 2.741 0 0 0 1 2.121l.7-.848zm-1.029 3.85a7.888 7.888 0 0 0 1.454-2.526l-1.037-.362a6.765 6.765 0 0 1-1.252 2.173l.835.714zm-2.412.527c.363-.21.792-.273 1.2-.177l.252-1.07a2.74 2.74 0 0 0-2 .295l.548.952zm-.782 1.057a1.645 1.645 0 0 1 .782-1.057l-.55-.952a2.744 2.744 0 0 0-1.3 1.761l1.068.248zM16 23.871c.654 0 1.305-.08 1.938-.24l-.27-1.065a6.793 6.793 0 0 1-1.668.207v1.098zm-1.938-.24c.634.16 1.285.24 1.938.24v-1.1a6.792 6.792 0 0 1-1.664-.2l-.274 1.06zm-1.634-1.986a1.643 1.643 0 0 1 .782 1.057l1.071-.248a2.744 2.744 0 0 0-1.3-1.76l-.553.951zm-1.2-.177a1.641 1.641 0 0 1 1.2.177l.55-.952a2.74 2.74 0 0 0-2-.295l.25 1.07zm-2.664-2.877a7.884 7.884 0 0 0 1.454 2.525l.835-.715a6.766 6.766 0 0 1-1.252-2.173l-1.037.363zm1.027-2.6a1.644 1.644 0 0 1-.6 1.273l.7.848a2.742 2.742 0 0 0 1-2.12h-1.1zm-.6-1.273a1.645 1.645 0 0 1 .6 1.273h1.1a2.741 2.741 0 0 0-1-2.12l-.7.847zm1.026-3.847a7.873 7.873 0 0 0-1.455 2.526l1.037.362a6.766 6.766 0 0 1 1.252-2.173l-.834-.715zm2.411-.528c-.363.21-.792.274-1.2.177l-.252 1.07a2.74 2.74 0 0 0 2-.295l-.548-.952zm.782-1.057a1.642 1.642 0 0 1-.782 1.057l.55.952a2.743 2.743 0 0 0 1.3-1.76l-1.068-.249zM16 8.117c-.653 0-1.304.08-1.938.24l.27 1.065A6.794 6.794 0 0 1 16 9.215V8.117zm1.938.24A7.893 7.893 0 0 0 16 8.117v1.1c.563 0 1.123.07 1.668.207l.27-1.067zm-3.657 1.177a.259.259 0 0 1 .045-.1c.013-.016.015-.01.005-.009l-.27-1.065a1.211 1.211 0 0 0-.852.93l1.072.244zm-4.595 4.338a.272.272 0 0 1-.08-.1c-.01-.022 0-.02-.008-.01L8.561 13.4a1.216 1.216 0 0 0 .426 1.324l.7-.852zm1.287 6.525a.258.258 0 0 1-.112 0c-.02 0-.018-.009-.01 0l-.835.715a1.21 1.21 0 0 0 1.21.351l-.253-1.066zm3.363 2.174c.01 0 .008.007-.005-.009a.258.258 0 0 1-.045-.1l-1.07.248a1.212 1.212 0 0 0 .851.93l.27-1.069zm3.387-.11a.257.257 0 0 1-.045.1c-.013.015-.015.01-.005.008l.27 1.065a1.211 1.211 0 0 0 .852-.929l-1.072-.245zm3.43-2.053c.007-.008.01 0-.01 0a.255.255 0 0 1-.112 0l-.252 1.07a1.211 1.211 0 0 0 1.21-.35l-.836-.72zm1.252-6.642c0-.01 0-.012-.007.01a.269.269 0 0 1-.08.1l.7.848a1.216 1.216 0 0 0 .425-1.324l-1.038.366zm-12.8 4.47c0 .01 0 .011.007-.01a.27.27 0 0 1 .081-.1l-.7-.849a1.216 1.216 0 0 0-.426 1.324l1.038-.366zm11.427-6.64a.255.255 0 0 1 .112 0c.02 0 .017.01.01 0l.835-.715a1.21 1.21 0 0 0-1.209-.35l.252 1.065zm-10.175 0c-.007.008-.01 0 .01 0a.258.258 0 0 1 .112 0l.252-1.07a1.21 1.21 0 0 0-1.209.351l.835.72zm11.462 6.53c.035.025.063.06.081.1.01.021 0 .02.007.01l1.037.361a1.217 1.217 0 0 0-.426-1.324l-.699.852zm-3.524-8.83a1.212 1.212 0 0 0-.852-.929l-.27 1.066c-.01 0-.008-.007.005.01.022.029.038.063.045.1l1.072-.247z" fill="#E2E2E2"/>
    <path d="m19.297 10.823.275-.476m-.275 10.825-.275-.476m-6.319.476-.275.476m.275-10.825.275.476m.768-1.885-.536-.124M11.1 20.936l-.126-.535m-.54.361.418-.358m3.345 2.697.135-.533m-.586.013.536-.124m3.973.124-.536-.124m.085.644.135.533m3.628-2.872-.418-.358m1.771-6.823.52-.18m-.776.9-.349-.425m-1.414-2.818-.126-.535m1.89 7.171-.35.424m.605.295-.519-.18m-4.146-8.82-.536.124m0 0a2.744 2.744 0 0 0 1.3 1.761m-1.3-1.76 1.068-.249a1.642 1.642 0 0 0 .782 1.057l-.55.952m0 0a2.74 2.74 0 0 0 2 .295l-.252-1.07a1.641 1.641 0 0 1-1.2-.177l-.548.952zm3.39 4.7a1.644 1.644 0 0 1 .6-1.273l-.7-.848a2.74 2.74 0 0 0-1 2.121m1.1 0h-1.1m1.1 0a1.644 1.644 0 0 0 .6 1.273l-.7.848a2.742 2.742 0 0 1-1-2.12m-1.742 5.65c.363-.21.792-.274 1.2-.178l.252-1.07a2.74 2.74 0 0 0-2 .295l.548.952zm0 0a1.645 1.645 0 0 0-.782 1.056l-1.068-.248a2.745 2.745 0 0 1 1.3-1.76l.55.951zM16 23.87c.654 0 1.305-.08 1.938-.24l-.27-1.065a6.793 6.793 0 0 1-1.668.207v1.098zm0 0c-.653 0-1.304-.08-1.938-.24l.274-1.06m1.664 1.3v-1.1a6.792 6.792 0 0 1-1.664-.2m0 0c.01 0 .008.007-.005-.009a.258.258 0 0 1-.045-.1l-1.07.248a1.212 1.212 0 0 0 .851.93l.27-1.069zm-1.908-.926a1.643 1.643 0 0 1 .782 1.057l1.071-.248a2.744 2.744 0 0 0-1.3-1.76l-.553.951zm0 0a1.641 1.641 0 0 0-1.2-.177l-.25-1.07a2.74 2.74 0 0 1 2 .295l-.55.952zm-2.837-5.654a1.644 1.644 0 0 1-.6 1.273l.7.848a2.742 2.742 0 0 0 1-2.12m-1.1 0h1.1m-1.1 0a1.645 1.645 0 0 0-.6-1.274l.7-.848a2.741 2.741 0 0 1 1 2.121m1.737-5.648c-.363.21-.792.274-1.2.177l-.252 1.07a2.74 2.74 0 0 0 2-.295l-.548-.952zm0 0a1.645 1.645 0 0 0 .782-1.057l1.067.248a2.743 2.743 0 0 1-1.3 1.761l-.549-.952zM16 8.117c-.653 0-1.304.08-1.938.24l.27 1.065A6.794 6.794 0 0 1 16 9.215V8.117zm0 0c.654 0 1.305.08 1.938.24l-.27 1.067A6.789 6.789 0 0 0 16 9.217v-1.1zm7.435 5.281a7.874 7.874 0 0 0-1.452-2.527l-.835.715c.55.64.974 1.377 1.252 2.173l1.035-.36zM21.98 21.12a7.888 7.888 0 0 0 1.454-2.525l-1.037-.362a6.765 6.765 0 0 1-1.252 2.173l.835.714zM8.564 18.591a7.884 7.884 0 0 0 1.454 2.525l.835-.715a6.766 6.766 0 0 1-1.252-2.173l-1.037.363zm1.453-7.72a7.873 7.873 0 0 0-1.455 2.526l1.037.362a6.766 6.766 0 0 1 1.252-2.173l-.834-.715zm4.264-1.337a.259.259 0 0 1 .045-.1c.013-.016.015-.01.005-.009l-.27-1.065a1.211 1.211 0 0 0-.852.93l1.072.244zm-4.595 4.338a.272.272 0 0 1-.08-.1c-.01-.022 0-.02-.008-.01L8.561 13.4a1.216 1.216 0 0 0 .426 1.324l.7-.852zm1.287 6.525a.258.258 0 0 1-.112 0c-.02 0-.018-.009-.01 0l-.835.715a1.21 1.21 0 0 0 1.21.351l-.253-1.066zm6.75 2.063a.257.257 0 0 1-.045.1c-.013.016-.015.011-.005.01l.27 1.064a1.211 1.211 0 0 0 .852-.929l-1.072-.245zm3.43-2.052c.007-.008.01 0-.01 0a.255.255 0 0 1-.112 0l-.252 1.07a1.211 1.211 0 0 0 1.21-.35l-.836-.72zm1.252-6.642c0-.01 0-.012-.007.01a.269.269 0 0 1-.08.1l.7.848a1.216 1.216 0 0 0 .425-1.324l-1.038.366zm-12.8 4.47c0 .01 0 .011.007-.01a.27.27 0 0 1 .081-.1l-.7-.849a1.216 1.216 0 0 0-.426 1.324l1.038-.366zm11.427-6.64a.255.255 0 0 1 .112 0c.02 0 .017.01.01 0l.835-.715a1.21 1.21 0 0 0-1.209-.35l.252 1.065zm-10.175 0c-.007.008-.01 0 .01 0a.258.258 0 0 1 .112 0l.252-1.07a1.21 1.21 0 0 0-1.209.351l.835.72zm11.462 6.53c.035.025.063.06.081.1.01.021 0 .02.007.01l1.037.361a1.217 1.217 0 0 0-.426-1.324l-.699.852zm-3.524-8.83a1.212 1.212 0 0 0-.852-.929l-.27 1.066c-.01 0-.008-.007.005.01.022.029.038.063.045.1l1.072-.247z" stroke="#E2E2E2" stroke-width=".3"/>
</svg>
