<svg width="50" height="60" viewBox="0 0 50 60" fill="none" xmlns="http://www.w3.org/2000/svg">
    <path d="M17.173 46.636v5.17h-.902V41.95h.902v3.927h1.628v.76h-1.628zM14.5 42.93v6.37H9.979v-6.37H14.5zm-.88 5.643v-4.917h-2.761v4.917h2.761zm10.526-1.914c-2.057 0-3.443-.847-3.443-2.167 0-1.309 1.386-2.156 3.443-2.156 2.057 0 3.454.847 3.454 2.156 0 1.32-1.397 2.167-3.454 2.167zm0-3.597c-1.496 0-2.519.55-2.519 1.43 0 .88 1.023 1.441 2.52 1.441 1.506 0 2.53-.56 2.53-1.44 0-.88-1.024-1.43-2.53-1.43zm.451 5.28v3.476h-.902v-3.476h-3.993v-.748h8.932v.748h-4.037zm13.32-.693c-1.496-.352-3.047-1.397-3.663-2.849-.616 1.441-2.178 2.497-3.652 2.85l-.407-.749c1.716-.352 3.586-1.815 3.586-3.509v-.759h.946v.76c0 1.671 1.87 3.19 3.597 3.508l-.407.748zm.847 2.838h-8.943v-.748h8.943v.748z" fill="#F5F5F5"/>
    <path d="M24.5 12.016a6.584 6.584 0 0 0-4.596 1.857A6.263 6.263 0 0 0 18 18.356V24.6c-.01.84.151 1.672.473 2.45.322.777.8 1.485 1.404 2.081a6.51 6.51 0 0 0 2.118 1.394 6.641 6.641 0 0 0 5.01 0 6.51 6.51 0 0 0 2.118-1.394 6.329 6.329 0 0 0 1.404-2.082c.322-.777.483-1.61.473-2.448v-6.246a6.263 6.263 0 0 0-1.904-4.483 6.584 6.584 0 0 0-4.596-1.857zM29.703 24.6a5.016 5.016 0 0 1-1.525 3.59 5.274 5.274 0 0 1-3.681 1.488 5.273 5.273 0 0 1-3.681-1.487A5.016 5.016 0 0 1 19.29 24.6v-6.245c0-1.347.548-2.639 1.524-3.591a5.273 5.273 0 0 1 3.682-1.488c1.38 0 2.705.536 3.681 1.488a5.016 5.016 0 0 1 1.525 3.59v6.246zm-4.557-8.58v2.808a.623.623 0 0 1-.19.446.655.655 0 0 1-.914 0 .623.623 0 0 1-.19-.446v-2.808c0-.167.068-.327.19-.446a.655.655 0 0 1 .914 0c.122.119.19.28.19.446z" fill="#fff"/>
    <g clip-path="url(#5rz2i6d1sa)" fill="#fff">
        <path d="M34.983 8.068c1.247.885 2.027 2.163 2.49 3.66.038.123.077.247.111.372.084.309-.056.582-.343.675-.27.087-.554-.057-.664-.342-.253-.657-.532-1.303-.933-1.884-1.052-1.526-2.514-2.412-4.33-2.735-.34-.061-.683-.101-1.028-.133-.36-.033-.574-.25-.558-.564.014-.305.248-.5.6-.503 1.226-.009 2.41.191 3.518.742a6.49 6.49 0 0 1 1.137.712z"/>
        <path d="M33.503 9.937c.823.592 1.316 1.416 1.652 2.349.054.148.108.294.152.445.082.282-.044.529-.304.61-.255.08-.496-.056-.6-.325-.73-1.89-2.104-2.921-4.125-3.092-.3-.025-.497-.22-.486-.495.01-.275.223-.46.528-.451.793.021 1.574.106 2.309.435.313.14.6.323.874.524zM32.24 11.81c.415.315.707.85.858 1.47a.415.415 0 0 1-.263.498.434.434 0 0 1-.532-.19c-.087-.142-.167-.288-.25-.434-.295-.51-.74-.817-1.307-.955-.147-.035-.296-.064-.441-.104a.432.432 0 0 1 .087-.849c.63-.022 1.224.1 1.848.565z"/>
    </g>
    <defs>
        <clipPath id="5rz2i6d1sa">
            <path fill="#fff" transform="rotate(36.817 11.063 48.361)" d="M0 0h12v12H0z"/>
        </clipPath>
    </defs>
</svg>
