<svg width="50" height="60" viewBox="0 0 50 60" fill="none" xmlns="http://www.w3.org/2000/svg">
    <path d="M14.303 50.549H5.338v-.748h4.015v-2.057c-1.837-.121-3.135-1.122-3.135-2.563 0-1.573 1.518-2.585 3.597-2.585 2.079 0 3.575 1.012 3.575 2.585 0 1.441-1.287 2.442-3.124 2.563v2.057h4.037v.748zm-7.216-5.368c0 1.133 1.144 1.87 2.728 1.87 1.573 0 2.717-.737 2.717-1.87s-1.144-1.87-2.717-1.87c-1.584 0-2.728.737-2.728 1.87zm10.328-.715h5.038v-1.804h.88v5.137h-6.81v-5.137h.892v1.804zm5.038 2.596v-1.87h-5.038v1.87h5.038zm1.958 3.443h-8.943v-.748h8.943v.748zm9.503-2.519h-.87v-6.028h.87v6.028zm-2.772-5.819H32v5.742h-.858v-2.684h-1.485v-.737h1.485v-2.321zm-1.166 5.346a3.43 3.43 0 0 1-1.892-1.969c-.341.968-1.012 1.771-1.98 2.2l-.473-.693c1.265-.561 2.002-1.826 2.002-3.003v-.561h-1.815v-.737h4.378v.737h-1.694v.55c0 1.089.693 2.255 1.925 2.783l-.451.693zm3.938.913v3.399h-.902v-2.673H27.28v-.726h6.633zm2.936-.429v-5.192h6.677v.726h-5.764v1.463h5.544v.715h-5.544v1.562h5.863v.726H36.85zm7.799 2.541h-8.954v-.737h8.954v.737z" fill="#F5F5F5"/>
    <path d="m32.073 16.012-7.165-4.125a1.87 1.87 0 0 0-1.828 0l-7.165 4.125A1.813 1.813 0 0 0 15 17.607v8.271a1.884 1.884 0 0 0 .914 1.595l7.168 4.124a1.766 1.766 0 0 0 1.828 0l7.166-4.146a1.812 1.812 0 0 0 .909-1.594v-8.25a1.858 1.858 0 0 0-.914-1.595h.002zm-8.27-2.87a.315.315 0 0 1 .187-.043.616.616 0 0 1 .187.043l6.612 3.83-6.803 3.912-6.796-3.915 6.613-3.827zm-7.145 13.055a.396.396 0 0 1-.186-.319v-7.654l6.803 3.933v7.848l-6.616-3.808zm14.669 0-6.613 3.83v-7.866l6.803-3.934v7.633a.383.383 0 0 1-.187.34l-.003-.003z" fill="#fff"/>
    <g clip-path="url(#83u85sd8aa)" fill="#fff">
        <path d="M35.092 10.068c1.247.885 2.028 2.163 2.49 3.66.039.123.078.247.111.372.084.309-.056.582-.343.675-.27.087-.553-.057-.664-.342-.253-.657-.532-1.303-.932-1.884-1.053-1.526-2.515-2.412-4.33-2.735-.34-.061-.684-.101-1.029-.133-.36-.033-.573-.25-.558-.564.015-.305.249-.5.6-.503 1.226-.009 2.41.191 3.518.742.403.197.784.436 1.137.712z"/>
        <path d="M33.612 11.937c.823.592 1.316 1.416 1.653 2.349.053.148.107.294.152.445.082.282-.045.529-.304.61-.255.08-.497-.056-.6-.325-.73-1.89-2.105-2.921-4.125-3.092-.3-.025-.498-.22-.487-.495.011-.275.224-.46.529-.451.792.021 1.574.106 2.308.435.313.14.6.323.874.524zM32.35 13.81c.414.315.706.85.857 1.47a.415.415 0 0 1-.263.498.434.434 0 0 1-.532-.19c-.087-.142-.167-.288-.25-.434-.295-.51-.74-.817-1.307-.955-.147-.035-.295-.064-.441-.104a.432.432 0 0 1-.324-.462.424.424 0 0 1 .411-.387c.631-.022 1.224.1 1.848.565z"/>
    </g>
    <defs>
        <clipPath id="83u85sd8aa">
            <path fill="#fff" transform="rotate(36.817 8.113 49.525)" d="M0 0h12v12H0z"/>
        </clipPath>
    </defs>
</svg>
