<svg width="50" height="60" viewBox="0 0 50 60" fill="none" xmlns="http://www.w3.org/2000/svg">
<path d="M45 0H5C2.23858 0 0 2.23799 0 4.9987V54.9857C0 57.7464 2.23858 59.9844 5 59.9844H45C47.7614 59.9844 50 57.7464 50 54.9857V4.9987C50 2.23799 47.7614 0 45 0Z" fill="#393939"/>
<path d="M11.76 45.3492V42.0932H12.651V43.0282H17.447V42.0932H18.338V45.3492H11.76ZM12.651 43.7102V44.6562H17.447V43.7102H12.651ZM15.489 47.8462H18.36V50.0462H12.563V51.0032H18.657V51.6962H11.683V49.3862H17.469V48.5282H11.65V47.8462H14.587V46.8782H10.572V46.1522H19.504V46.8782H15.489V47.8462ZM28.7981 51.8172H27.8961V41.9282H28.7981V51.8172ZM22.1761 48.6822C23.7931 48.6822 25.2561 48.5942 26.9721 48.3302L27.0601 49.0672C25.2671 49.3642 23.7931 49.4302 22.0881 49.4302H21.2741V45.6462H24.9041V43.5892H21.2411V42.8522H25.8171V46.3832H22.1761V48.6822ZM36.0243 45.4152C35.8483 46.6252 34.8363 47.4612 33.5163 47.4612C32.0643 47.4612 30.9753 46.4492 30.9753 45.0302C30.9753 43.5892 32.0643 42.5662 33.5163 42.5662C34.8473 42.5662 35.8593 43.4242 36.0353 44.6782H38.0373V41.9392H38.9503V49.2102H38.0373V45.4152H36.0243ZM31.8333 45.0302C31.8333 45.9982 32.5483 46.6692 33.5163 46.6692C34.4843 46.6692 35.1993 45.9982 35.1993 45.0302C35.1993 44.0512 34.4843 43.3582 33.5163 43.3582C32.5483 43.3582 31.8333 44.0512 31.8333 45.0302ZM39.2253 51.5862H32.6363V48.4842H33.5493V50.8492H39.2253V51.5862Z" fill="#D4ED3E"/>
<path d="M29.5714 12.0078H20.4286C18.535 12.0078 17 13.5424 17 15.4355V24.576C17 26.469 18.535 28.0036 20.4286 28.0036H29.5714C31.465 28.0036 33 26.469 33 24.576V15.4355C33 13.5424 31.465 12.0078 29.5714 12.0078Z" stroke="#D4ED3E" stroke-width="1.2"/>
<path d="M27.2857 16.0078H22.7143C21.7675 16.0078 21 16.7751 21 17.7217V22.2919C21 23.2384 21.7675 24.0057 22.7143 24.0057H27.2857C28.2325 24.0057 29 23.2384 29 22.2919V17.7217C29 16.7751 28.2325 16.0078 27.2857 16.0078Z" stroke="#D4ED3E" stroke-width="1.2"/>
<path d="M50 59.9979V52C50 57.5186 47.52 59.9979 42 59.9979H50Z" fill="white"/>
<rect x="14" y="17.0078" width="3" height="1.5" rx="0.75" fill="#D4ED3E"/>
<rect x="33" y="17.0078" width="3" height="1.5" rx="0.75" fill="#D4ED3E"/>
<rect x="14" y="21.0078" width="3" height="1.5" rx="0.75" fill="#D4ED3E"/>
<rect x="33" y="21.0078" width="3" height="1.5" rx="0.75" fill="#D4ED3E"/>
<rect x="28" y="9.01562" width="3" height="1.5" rx="0.75" transform="rotate(90 28 9.01562)" fill="#D4ED3E"/>
<rect x="28" y="28.0078" width="3" height="1.5" rx="0.75" transform="rotate(90 28 28.0078)" fill="#D4ED3E"/>
<rect x="24" y="9.01562" width="3" height="1.5" rx="0.75" transform="rotate(90 24 9.01562)" fill="#D4ED3E"/>
<rect x="24" y="28.0078" width="3" height="1.5" rx="0.75" transform="rotate(90 24 28.0078)" fill="#D4ED3E"/>
</svg>
