<svg width="60" height="60" viewBox="0 0 60 60" fill="none" xmlns="http://www.w3.org/2000/svg">
    <path d="M54 0H6C2.686 0 0 2.239 0 5v50c0 2.761 2.686 5 6 5h48c3.314 0 6-2.239 6-5V5c0-2.761-2.686-5-6-5z" fill="#393939"/>
    <path d="M13.73 51.79h-.857v-5.224h-1.331v4.74h-.847v-9.162h.847v3.685h1.33v-3.905h.859v9.867zM7.57 42.75c1.288 0 2.113 1.33 2.113 3.432 0 2.112-.825 3.443-2.112 3.443-1.276 0-2.101-1.331-2.101-3.443 0-2.101.825-3.432 2.1-3.432zm0 6.039c.793 0 1.277-.968 1.277-2.607 0-1.595-.484-2.596-1.276-2.596s-1.276 1-1.276 2.596c0 1.639.484 2.607 1.276 2.607zm15.983 2.992h-.902v-9.856h.902v9.856zm-6.567-3.311c1.507 0 3.014-.121 4.653-.462l.099.77c-1.727.352-3.256.462-4.84.462h-.814V42.88h.902v5.588zm16.983 3.31h-.858v-9.855h.858v9.856zm-1.958-9.635v9.152h-.858V46.39H29.69v2.75h-3.751v-6.072h3.75v2.574h1.464v-3.498h.858zm-5.225 1.639v4.642h2.068v-4.642h-2.068zm16.994 8.03h-.902v-9.89h.902v9.89zm-5.203-9.13c1.463 0 2.508 1.342 2.508 3.443 0 2.1-1.045 3.443-2.508 3.443s-2.508-1.342-2.508-3.443 1.045-3.443 2.508-3.443zm0 .814c-.968 0-1.65 1.034-1.65 2.629 0 1.606.682 2.64 1.65 2.64.957 0 1.639-1.034 1.639-2.64 0-1.595-.682-2.63-1.639-2.63zm12.473 2.65v-.736h1.991v-1.298h-1.99v-.726h1.99v-1.463h.902v7.37h-.902v-3.146h-1.99zm.033 1.673c-1.067-.451-1.903-1.342-2.332-2.442-.407 1.188-1.276 2.134-2.43 2.607l-.485-.715c1.474-.561 2.464-1.98 2.464-3.531v-1.265h.902v1.265c0 1.452.957 2.805 2.376 3.366l-.495.715zm3.102 3.75h-6.578v-3.024h.902v2.288h5.676v.737zM37.082 15.133a2.067 2.067 0 1 0 0-4.133 2.067 2.067 0 0 0 0 4.133z" fill="#D4ED3E"/>
    <path d="M40.31 19.275h-3.576l.696-1.74a1.374 1.374 0 0 0-.713-1.767l-2.244-1.01a3.436 3.436 0 0 0-.704-.23l-.014-.003-.014-.003a3.468 3.468 0 0 0-.683-.069l-3.26.074a2.056 2.056 0 0 0-1.92 1.3l-1.033 2.577a.689.689 0 1 0 1.28.512l1.031-2.578a.685.685 0 0 1 .642-.433l2.835-.074-3.069 7.9a2.056 2.056 0 0 1-1.919 1.3H24.69a.689.689 0 1 0 0 1.377h2.956a3.428 3.428 0 0 0 3.2-2.165l.557-1.391 4.696 2.163a2.054 2.054 0 0 1 1.186 1.62l.498 3.992a.688.688 0 1 0 1.367-.172l-.499-3.99a3.424 3.424 0 0 0-1.976-2.702l-1.388-.64.91-2.504a.682.682 0 0 0 .21.034h3.903a.689.689 0 1 0 0-1.378zm-8.392 2.051 2.105-5.26 2.128.958-2.114 5.279-2.118-.977z" fill="#D4ED3E" stroke="#D4ED3E" stroke-width=".2"/>
    <rect x="19" y="13" width="7" height="1.5" rx=".75" fill="#D4ED3E"/>
    <rect x="17" y="17" width="7" height="1.5" rx=".75" fill="#D4ED3E"/>
    <rect x="19" y="21" width="7" height="1.5" rx=".75" fill="#D4ED3E"/>
    <path fill="#D4ED3E" d="m33.875 15.836 2.999 1.219-2.437 5.996-3-1.218z"/>
</svg>
