<svg width="50" height="60" viewBox="0 0 50 60" fill="none" xmlns="http://www.w3.org/2000/svg">
    <path d="M17.494 46.666v5.137h-.902v-9.856h.902v3.96h1.628v.759h-1.628zm-6.259 2.035c1.76 0 2.96-.088 4.433-.319l.088.726c-1.518.264-2.794.33-4.653.33h-.77v-6.6h4.598v.737h-3.696v2.035h3.476v.726h-3.476v2.365zm16.862 3.135h-.902v-9.889h.902v9.889zm-5.203-9.13c1.463 0 2.508 1.342 2.508 3.443s-1.045 3.443-2.508 3.443-2.508-1.342-2.508-3.443 1.045-3.443 2.508-3.443zm0 .814c-.968 0-1.65 1.034-1.65 2.629 0 1.606.682 2.64 1.65 2.64.957 0 1.64-1.034 1.64-2.64 0-1.595-.683-2.629-1.64-2.629zm15.378 8.316h-.902v-5.555h-2.343v3.036h-4.488v-6.402h4.488v2.629h2.343v-3.597h.902v9.889zm-6.853-8.206v4.972h2.717V43.63h-2.717z" fill="#F5F5F5"/>
    <g clip-path="url(#ra0qk9d7ca)" fill="#fff" stroke="#282828">
        <path d="m32.13 13.552-.07.07.068.07a10.01 10.01 0 0 1 2.82 6.97c0 5.523-4.464 10.015-9.951 10.015s-9.952-4.492-9.952-10.015c0-5.202 3.963-9.487 9.009-9.967l.09-.009v-.854h-1.528a.856.856 0 0 1-.853-.858c0-.474.383-.858.853-.858h4.762c.47 0 .852.384.852.858a.856.856 0 0 1-.852.858H25.849v.854l.09.009a9.844 9.844 0 0 1 4.749 1.763l.069.049.06-.06.487-.49a.848.848 0 0 1 1.205 0 .862.862 0 0 1 0 1.213l-.38.382zm1.113 7.11c0-4.575-3.698-8.298-8.246-8.298s-8.247 3.723-8.247 8.298c0 4.574 3.699 8.297 8.247 8.297 4.547 0 8.246-3.722 8.246-8.297z" stroke-width=".2"/>
        <path d="M25.805 19.106v.078l.064.044c.392.278.65.734.65 1.25 0 .844-.681 1.528-1.516 1.528a1.527 1.527 0 0 1-.866-2.777l.063-.045V14.802c0-.447.36-.808.803-.808.442 0 .802.361.802.808v4.304z" stroke-width=".3"/>
    </g>
    <defs>
        <clipPath id="ra0qk9d7ca">
            <path fill="#fff" transform="translate(15 8.016)" d="M0 0h20v23H0z"/>
        </clipPath>
    </defs>
</svg>
