<svg width="50" height="60" viewBox="0 0 50 60" fill="none" xmlns="http://www.w3.org/2000/svg">
    <path d="M16.224 47.568v-4.961h.892v1.738h2.662v-1.738h.89v1.155h2.277v-1.804h.913v7.293h-.913v-2.629H20.67v.946h-4.445zm4.445-1.683h2.276v-1.397H20.67v1.397zm-3.553-.825v1.782h2.662V45.06h-2.662zm6.974 6.534h-6.578v-3.058h.901v2.321h5.677v.737zm1.957-8.008v-.671h2.387v-1.001h.902v1.001h2.376v.671h-5.665zm8.899 2.552h-1.452v3.531h-.902v-7.722h.902v3.443h1.452v.748zm-2.871 1.969c-2.09.385-4.444.429-6.171.429l-.1-.726a76.5 76.5 0 0 0 2.63-.044v-.748c-1.144-.121-1.86-.66-1.86-1.507 0-.935.925-1.507 2.31-1.507 1.376 0 2.3.572 2.3 1.507 0 .847-.704 1.386-1.848 1.507v.704a22.68 22.68 0 0 0 2.673-.264l.066.649zm-4.642-2.596c0 .561.56.88 1.452.88.88 0 1.44-.319 1.44-.88 0-.528-.56-.869-1.44-.869-.891 0-1.452.341-1.452.869zm6.413 5.346v.737h-6.59v-2.431h.903v1.694h5.687z" fill="#F5F5F5"/>
    <path d="M17.888 15.998a8.118 8.118 0 0 1 3.194-3.03 8.391 8.391 0 0 1 4.35-.957 8.356 8.356 0 0 1 4.22 1.398 8.054 8.054 0 0 1 2.85 3.34M16 13.515l.748 3.16c.062.258.226.482.456.623.23.14.51.187.775.128l3.243-.73m10.89 7.307a8.118 8.118 0 0 1-3.196 3.03 8.391 8.391 0 0 1-4.349.957 8.356 8.356 0 0 1-4.22-1.398 8.054 8.054 0 0 1-2.85-3.34M34 26.48l-.748-3.16a1.004 1.004 0 0 0-.456-.623c-.23-.14-.51-.187-.775-.128l-3.243.73" stroke="#fff" stroke-width="1.5" stroke-linecap="round"/>
</svg>
