<svg width="50" height="60" viewBox="0 0 50 60" fill="none" xmlns="http://www.w3.org/2000/svg">
    <path d="M17.993 46.699v5.115h-.902v-9.867h.902v4.004h1.584v.748h-1.584zm-2.508-3.729c0 2.86-.979 5.467-4.499 7.227l-.495-.693c1.837-.913 2.904-2.013 3.52-3.344l-3.322.319-.154-.792 3.751-.253c.165-.55.264-1.122.297-1.727H11.03v-.737h4.455zm13.42 8.833h-.858v-9.856h.857v9.856zm-1.959-9.636v9.152h-.858v-4.906h-1.463v2.75h-3.75v-6.072h3.75v2.574h1.463v-3.498h.858zm-5.225 1.639v4.642h2.069v-4.642H21.72zm16.522 2.816v5.203h-.902v-9.889h.902v3.927h1.617v.759h-1.617zm-6.314 2.068c1.793 0 3.069-.055 4.543-.352l.099.748c-1.551.264-2.86.352-4.741.352h-.781v-3.773h3.542v-2.068h-3.575v-.737h4.466v3.542h-3.553v2.288z" fill="#F5F5F5"/>
    <mask id="05sb0lv5va" style="mask-type:luminance" maskUnits="userSpaceOnUse" x="13" y="10" width="22" height="22">
        <path d="M34.288 10.703H13.735v20.554h20.554V10.703z" fill="#fff"/>
    </mask>
    <g mask="url(#05sb0lv5va)">
        <path d="m20.163 14.102-.373 1.121H17.1a2.306 2.306 0 0 0-2.303 2.305v9.214a2.306 2.306 0 0 0 2.303 2.303h13.82a2.306 2.306 0 0 0 2.304-2.303v-9.214a2.306 2.306 0 0 0-2.303-2.304h-2.69l-.373-1.121a1.722 1.722 0 0 0-1.638-1.181h-4.416a1.723 1.723 0 0 0-1.64 1.18zm3.848 4.578a3.457 3.457 0 1 1 0 6.915 3.457 3.457 0 0 1 0-6.915z" stroke="#fff" stroke-width="1.5"/>
    </g>
    <g clip-path="url(#160cmv0bpb)" fill="#fff">
        <path d="M36.983 10.068c1.247.885 2.027 2.163 2.49 3.66.038.123.077.247.111.372.084.309-.056.582-.343.675-.27.087-.554-.057-.664-.342-.253-.657-.532-1.303-.933-1.884-1.052-1.526-2.514-2.412-4.33-2.735-.34-.061-.684-.101-1.028-.133-.36-.033-.574-.25-.558-.564.014-.305.248-.5.6-.503 1.226-.009 2.41.191 3.518.742.402.197.783.436 1.137.712z"/>
        <path d="M35.503 11.937c.823.592 1.316 1.416 1.652 2.349.054.148.108.294.152.445.082.282-.044.529-.304.61-.255.08-.496-.056-.6-.325-.73-1.89-2.104-2.921-4.125-3.092-.3-.025-.497-.22-.486-.495.01-.275.223-.46.528-.451.793.021 1.574.106 2.309.435.313.14.6.323.874.524zM34.24 13.81c.415.315.707.85.858 1.47a.415.415 0 0 1-.263.498.434.434 0 0 1-.532-.19c-.087-.142-.167-.288-.25-.434-.295-.51-.74-.817-1.307-.955-.147-.035-.296-.064-.442-.104a.432.432 0 0 1 .088-.849c.63-.022 1.224.1 1.848.565z"/>
    </g>
    <defs>
        <clipPath id="160cmv0bpb">
            <path fill="#fff" transform="rotate(36.817 9.059 52.366)" d="M0 0h12v12H0z"/>
        </clipPath>
    </defs>
</svg>
