<svg width="50" height="60" viewBox="0 0 50 60" fill="none" xmlns="http://www.w3.org/2000/svg">
    <path d="M45 0H5a5 5 0 0 0-5 5v50a5 5 0 0 0 5 5h40a5 5 0 0 0 5-5V5a5 5 0 0 0-5-5z" fill="#393939"/>
    <path d="M18.258 46.703v5.115h-.9V41.96h.9v3.993h1.628v.749h-1.628zm-4.28-2.123a5.036 5.036 0 0 0 2.509 4.223l-.561.715a5.318 5.318 0 0 1-2.387-3.07 5.465 5.465 0 0 1-2.453 3.268l-.54-.726a5.242 5.242 0 0 0 2.542-4.411v-1.771h.89v1.772zm11.264 1.583c-2.08 0-3.454-.76-3.454-1.98 0-1.221 1.375-1.98 3.454-1.98s3.454.759 3.454 1.98c0 1.22-1.375 1.98-3.454 1.98zm0-3.234c-1.5 0-2.508.473-2.508 1.254 0 .759 1.012 1.243 2.508 1.243 1.529 0 2.508-.484 2.508-1.243 0-.792-.968-1.254-2.508-1.254zm4.477 4.763H25.78v1.99h-.913v-1.99h-4.092v-.737h8.943v.737zm-.98 3.157v.748h-6.82v-2.882h.9v2.134h5.92zm3.3-3.432v-4.565h6.678v.75H32.93v3.08h5.885v.738l-6.775-.003zm7.81 3.069h-8.951v-.748h8.954l-.002.748zM25.145 30.46c-.39 0-.762-.144-1.05-.407l-5.626-5.139-.028-.026h-.039l-1.408-.012a3.975 3.975 0 0 1-3.963-3.962V19.71a3.942 3.942 0 0 1 1.158-2.807 3.942 3.942 0 0 1 2.804-1.167h1.448l.028-.026 5.626-5.139a1.552 1.552 0 0 1 1.677-.275c.563.249.927.807.927 1.423v17.187a1.556 1.556 0 0 1-1.554 1.554zm-8.142-7.481h1.805c.238 0 .466.09.642.25l5.163 4.724.168.154v-15.58l-.168.153-5.172 4.724a.95.95 0 0 1-.643.25h-1.805a2.062 2.062 0 0 0-2.055 2.056v1.204a2.072 2.072 0 0 0 .602 1.462c.39.389.906.603 1.456.603h.007z" fill="#D4ED3E"/>
    <path d="M25.143 30.359a1.456 1.456 0 0 0 1.454-1.455V11.717a1.455 1.455 0 0 0-2.436-1.074l-5.684 5.192h-1.485a3.843 3.843 0 0 0-2.733 1.137 3.843 3.843 0 0 0-1.13 2.737v1.203a3.875 3.875 0 0 0 3.864 3.862l1.485.013 5.683 5.191c.27.246.618.38.982.38zm-8.141-7.282h-.007a2.145 2.145 0 0 1-1.527-.632 2.173 2.173 0 0 1-.632-1.533V19.71a2.163 2.163 0 0 1 2.156-2.156h1.805c.213 0 .418-.08.575-.224l5.507-5.03v16.033l-5.498-5.03a.851.851 0 0 0-.575-.225h-1.804zm8.141 7.482c-.405 0-.806-.15-1.117-.433l-5.626-5.14-1.408-.012a4.068 4.068 0 0 1-4.062-4.062V19.71a4.068 4.068 0 0 1 4.062-4.074H18.4l5.626-5.14a1.655 1.655 0 0 1 2.772 1.222v17.187a1.655 1.655 0 0 1-1.655 1.655zm-8.142-7.682h1.805c.263 0 .516.1.71.277l5.163 4.724V12.752l-5.172 4.724a1.053 1.053 0 0 1-.71.277h-1.805a1.959 1.959 0 0 0-1.956 1.956v1.203A1.959 1.959 0 0 0 17 22.877z" fill="#393939"/>
    <path d="M30.952 27.903a.931.931 0 0 1-.526-1.701 8.125 8.125 0 0 0 0-13.423.934.934 0 0 1 .527-1.7c.187 0 .369.055.524.161a9.989 9.989 0 0 1 0 16.5.923.923 0 0 1-.525.163zm-1.597-2.545a.931.931 0 0 1-.527-1.7 5.045 5.045 0 0 0 0-8.335.933.933 0 0 1 .527-1.7c.188 0 .37.056.525.162a6.91 6.91 0 0 1 0 11.41.925.925 0 0 1-.525.163z" fill="#D4ED3E"/>
    <path d="M30.95 27.801c.168 0 .33-.05.468-.145a9.888 9.888 0 0 0 0-16.335.833.833 0 0 0-.938 1.374 8.226 8.226 0 0 1 0 13.588.826.826 0 0 0-.348.532.831.831 0 0 0 .818.986zm-1.597-2.544c.167 0 .33-.05.468-.145a6.809 6.809 0 0 0 0-11.246.834.834 0 0 0-1.156.217.833.833 0 0 0 .218 1.156 5.145 5.145 0 0 1 0 8.5.826.826 0 0 0-.348.532.831.831 0 0 0 .818.986zM30.95 28a1.03 1.03 0 0 1-.582-1.884 8.026 8.026 0 0 0 0-13.257 1.032 1.032 0 0 1 1.164-1.704 10.089 10.089 0 0 1 0 16.665c-.178.122-.381.18-.582.18zm-1.597-2.544a1.03 1.03 0 0 1-.583-1.884 4.945 4.945 0 0 0 0-8.169 1.032 1.032 0 0 1 1.164-1.703 7.01 7.01 0 0 1 0 11.576c-.178.121-.38.18-.581.18z" fill="#393939"/>
</svg>
