<svg width="50" height="60" viewBox="0 0 50 60" fill="none" xmlns="http://www.w3.org/2000/svg">
    <path d="M45 0H5a5 5 0 0 0-5 5v50a5 5 0 0 0 5 5h40a5 5 0 0 0 5-5V5a5 5 0 0 0-5-5z" fill="#393939"/>
    <path d="M13.233 45.247H11.77v2.684h-.902v-5.973h.902v2.541h1.463v.748zM9.34 47.293a4.141 4.141 0 0 1-2.354-2.222 4.124 4.124 0 0 1-2.442 2.497l-.473-.715c1.496-.528 2.453-1.903 2.453-3.388v-1.012h.902v1.089c0 1.32.98 2.574 2.387 3.047l-.473.704zm-.704.913c1.991 0 3.245.66 3.245 1.804 0 1.144-1.254 1.793-3.245 1.793-2.013 0-3.256-.649-3.256-1.793s1.243-1.804 3.256-1.804zm0 2.893c1.463 0 2.343-.385 2.343-1.089s-.88-1.1-2.343-1.1-2.354.396-2.354 1.1c0 .704.891 1.089 2.354 1.089zm13.716-4.664c-1.54-.264-3.003-1.111-3.652-2.31-.616 1.199-2.112 2.046-3.64 2.31l-.364-.726c1.804-.264 3.531-1.441 3.531-2.86v-.55h.946v.55c0 1.375 1.76 2.596 3.553 2.86l-.374.726zm-3.223 1.815v3.575h-.902V48.25h-3.982v-.748h8.91l.011.748h-4.037zm16.639 2.288H26.8v-.737h4.027v-2.64H27.9v-4.367h.902v3.641h5.94v.726H31.73v2.64h4.038v.737zm2.298-3.124v-4.565h6.677v.748h-5.786v3.08h5.885v.737h-6.776zm7.81 3.069H36.92v-.748h8.954v.748z" fill="#D4ED3E"/>
    <path d="M33 9.25H17A2.75 2.75 0 0 0 14.25 12v16A2.75 2.75 0 0 0 17 30.75h16A2.75 2.75 0 0 0 35.75 28V12A2.75 2.75 0 0 0 33 9.25z" stroke="#D4ED3E"/>
    <path d="M29.582 18.466H28.03a2.37 2.37 0 0 0-.93-1.516 2.572 2.572 0 0 0-.79-.398 3.09 3.09 0 0 0-.92-.134c-.586 0-1.111.147-1.575.442-.461.295-.826.728-1.094 1.298-.265.57-.398 1.266-.398 2.088 0 .828.133 1.528.398 2.098.268.57.635 1 1.099 1.292.464.292.986.438 1.566.438.321 0 .626-.043.914-.13.292-.089.556-.22.79-.392a2.38 2.38 0 0 0 .94-1.496l1.552.004c-.083.5-.244.962-.483 1.383a3.814 3.814 0 0 1-.91 1.083 4.114 4.114 0 0 1-1.262.701 4.67 4.67 0 0 1-1.551.249c-.882 0-1.667-.209-2.357-.627-.69-.42-1.233-1.022-1.63-1.804-.395-.783-.592-1.716-.592-2.8 0-1.086.199-2.02.596-2.798.398-.782.942-1.382 1.631-1.8.69-.42 1.473-.631 2.352-.631.54 0 1.044.078 1.511.233.47.153.893.378 1.268.676.374.295.684.657.93 1.084.245.424.41.91.497 1.457z" fill="#D4ED3E"/>
    <path d="M50 59.998V52c0 5.519-2.48 7.998-8 7.998h8z" fill="#F5F5F5"/>
</svg>
