<svg width="60" height="60" viewBox="0 0 57 60" fill="none" xmlns="http://www.w3.org/2000/svg">
<path d="M51.3 0H5.7C2.55198 0 0 2.23858 0 5V55C0 57.7614 2.55198 60 5.7 60H51.3C54.448 60 57 57.7614 57 55V5C57 2.23858 54.448 0 51.3 0Z" fill="#393939"/>
<path d="M4.22875 45.3414V42.0854H5.11975V43.0204H9.91575V42.0854H10.8068V45.3414H4.22875ZM5.11975 43.7024V44.6484H9.91575V43.7024H5.11975ZM7.95775 47.8384H10.8288V50.0384H5.03175V50.9954H11.1258V51.6884H4.15175V49.3784H9.93775V48.5204H4.11875V47.8384H7.05575V46.8704H3.04075V46.1444H11.9728V46.8704H7.95775V47.8384ZM21.2669 51.8094H20.3649V41.9204H21.2669V51.8094ZM14.6449 48.6744C16.2619 48.6744 17.7249 48.5864 19.4409 48.3224L19.5289 49.0594C17.7359 49.3564 16.2619 49.4224 14.5569 49.4224H13.7429V45.6384H17.3729V43.5814H13.7099V42.8444H18.2859V46.3754H14.6449V48.6744ZM28.493 45.4074C28.317 46.6174 27.305 47.4534 25.985 47.4534C24.533 47.4534 23.444 46.4414 23.444 45.0224C23.444 43.5814 24.533 42.5584 25.985 42.5584C27.316 42.5584 28.328 43.4164 28.504 44.6704H30.506V41.9314H31.419V49.2024H30.506V45.4074H28.493ZM24.302 45.0224C24.302 45.9904 25.017 46.6614 25.985 46.6614C26.953 46.6614 27.668 45.9904 27.668 45.0224C27.668 44.0434 26.953 43.3504 25.985 43.3504C25.017 43.3504 24.302 44.0434 24.302 45.0224ZM31.694 51.5784H25.105V48.4764H26.018V50.8414H31.694V51.5784ZM36.3641 47.5524V42.5914H37.2551V44.3294H39.9171V42.5914H40.8081V43.7464H43.0851V41.9424H43.9981V49.2354H43.0851V46.6064H40.8081V47.5524H36.3641ZM40.8081 45.8694H43.0851V44.4724H40.8081V45.8694ZM37.2551 45.0444V46.8264H39.9171V45.0444H37.2551ZM44.2291 51.5784H37.6511V48.5204H38.5531V50.8414H44.2291V51.5784ZM54.1063 46.4194C52.5663 46.1554 51.1033 45.3084 50.4543 44.1094C49.8383 45.3084 48.3423 46.1554 46.8133 46.4194L46.4503 45.6934C48.2543 45.4294 49.9813 44.2524 49.9813 42.8334V42.2834H50.9273V42.8334C50.9273 44.2084 52.6873 45.4294 54.4803 45.6934L54.1063 46.4194ZM50.8833 48.2344V51.8094H49.9813V48.2344H45.9993V47.4864H54.9093L54.9203 48.2344H50.8833Z" fill="#D4ED3E"/>
<path d="M37 9.23438H21C19.4812 9.23438 18.25 10.4656 18.25 11.9844V27.9844C18.25 29.5032 19.4812 30.7344 21 30.7344H37C38.5188 30.7344 39.75 29.5032 39.75 27.9844V11.9844C39.75 10.4656 38.5188 9.23438 37 9.23438Z" stroke="#D4ED3E"/>
<path d="M26.164 16.1524H28.9C30.712 16.1524 32.02 16.7284 32.02 18.3244C32.02 19.1764 31.564 19.9564 30.76 20.2324V20.2924C31.768 20.5204 32.5 21.1924 32.5 22.3924C32.5 24.1564 31.084 24.9844 29.116 24.9844H26.164V16.1524ZM28.744 19.8364C30.088 19.8364 30.652 19.3324 30.652 18.5044C30.652 17.5804 30.028 17.2324 28.78 17.2324H27.556V19.8364H28.744ZM28.96 23.8924C30.364 23.8924 31.132 23.4244 31.132 22.3204C31.132 21.3124 30.364 20.8924 28.96 20.8924H27.556V23.8924H28.96Z" fill="#D4ED3E"/>
</svg>
