<svg width="50" height="60" viewBox="0 0 50 60" fill="none" xmlns="http://www.w3.org/2000/svg">
    <path d="M11.604 42.948v-.693h7.238v.693h-1.485v1.881h1.452v.693h-7.172v-.693H13.1v-1.881h-1.496zm2.398 0v1.881h2.453v-1.881h-2.453zm5.698 4.114h-8.932v-.715H19.7v.715zm-.847 3.96v.682H11.88v-2.255h5.786v-.847h-5.819v-.671h6.71v2.167H12.76v.924h6.094zm10.427.781h-.869v-5.225h-1.397v4.73h-.847v-9.141h.847v3.674h1.397v-3.894h.87v9.856zm-7.183-3.102c1.133-.011 2.145-.055 3.41-.275l.066.748c-1.364.231-2.475.275-3.696.275h-.649v-3.696h2.794v-1.991h-2.827v-.737h3.707v3.465h-2.805v2.211zm9.889-4.972v-.737h6.347v.011h.418v.979c0 1.254-.011 2.673-.385 4.807l-.902-.099c.396-2.013.396-3.487.396-4.708v-.253h-5.874zm7.964 6.644h-8.921v-.748h8.92v.748z" fill="#F5F5F5"/>
    <path d="m22.19 21.61-.03.074.019.078 1.907 7.808a.954.954 0 1 1-1.853.452l-3.956-16.196a.954.954 0 0 1 .147-.776c.257-.363.711-.875 1.36-1.388 1.035-.818 2.173-1.314 3.374-1.399 1.2-.085 2.484.239 3.814 1.092 1.01.649 1.837 1.063 2.633 1.27.801.21 1.556.205 2.417.039a.954.954 0 0 1 1.121 1.093c-.267 1.603-.991 3.018-2.175 4.031-1.184 1.013-2.846 1.642-5.018 1.642-.932 0-1.723.165-2.36.526-.64.363-1.107.916-1.4 1.654zm-.753-2.883.097.396.31-.266c1.029-.886 2.431-1.334 4.106-1.334 2.438 0 3.997-.96 4.787-2.47l.182-.348-.392-.018c-1.454-.065-2.835-.604-4.585-1.727-.925-.593-1.801-.844-2.641-.788-.839.055-1.611.414-2.334.986-.233.184-.445.38-.631.578l-.094.098.033.133 1.162 4.76z" fill="#fff" stroke="#282828" stroke-width=".5"/>
</svg>
