<svg width="50" height="60" viewBox="0 0 50 60" fill="none" xmlns="http://www.w3.org/2000/svg">
    <path d="M45 0H5a5 5 0 0 0-5 4.999v49.987a5 5 0 0 0 5 4.998h40a5 5 0 0 0 5-4.998V4.999A5 5 0 0 0 45 0z" fill="#393939"/>
    <path d="M23.91 47.923h-.869V41.95h.869v5.973zm-7.887-.66v-4.686h.858v1.595h2.123v-1.606h.847v1.98h1.265v-2.409h.847v5.687h-.847v-2.54h-1.265v1.98h-3.828zm.858-2.387v1.672h2.123v-1.672h-2.123zm7.029 3.542v3.4h-.902v-2.663h-5.731v-.737h6.633zm9.921 3.4h-.902v-5.413h-2.035v-.748h2.035v-3.729h.902v9.89zm-6.776-3.114c1.793 0 2.915-.077 4.268-.308l.1.737c-1.43.264-2.63.308-4.51.308h-.76v-6.61h4.565v.747h-3.663v2.035h3.234v.726h-3.234v2.365z" fill="#D4ED3E"/>
    <path d="M21 11.008h-3a2 2 0 0 0-2 2v13.995a2 2 0 0 0 2 2h3M29 29h3a2 2 0 0 0 2-2V13.005a2 2 0 0 0-2-2h-3" stroke="#D4ED3E" stroke-width="1.2" stroke-linecap="round"/>
    <path d="M50 59.998V52c0 5.519-2.48 7.998-8 7.998h8z" fill="#fff"/>
</svg>
