<svg width="50" height="60" viewBox="0 0 50 60" fill="none" xmlns="http://www.w3.org/2000/svg">
    <path d="M11.76 45.35v-3.257h.891v.935h4.796v-.935h.891v3.256H11.76zm.891-1.64v.946h4.796v-.946h-4.796zm2.838 4.136h2.871v2.2h-5.797v.957h6.094v.693h-6.974v-2.31h5.786v-.858H11.65v-.682h2.937v-.968h-4.015v-.726h8.932v.726h-4.015v.968zm13.31 3.971h-.903v-9.889h.902v9.89zm-6.623-3.135c1.617 0 3.08-.088 4.796-.352l.088.737c-1.793.297-3.267.363-4.972.363h-.814v-3.784h3.63V43.59h-3.663v-.737h4.576v3.531h-3.64v2.3zm13.848-3.267c-.176 1.21-1.188 2.046-2.508 2.046-1.452 0-2.54-1.012-2.54-2.43 0-1.442 1.088-2.465 2.54-2.465 1.331 0 2.343.858 2.52 2.112h2.001V41.94h.913v7.271h-.913v-3.795h-2.013zm-4.19-.385c0 .968.714 1.64 1.682 1.64s1.683-.672 1.683-1.64c0-.979-.715-1.672-1.683-1.672-.968 0-1.683.693-1.683 1.672zm7.391 6.556h-6.589v-3.102h.913v2.365h5.676v.737z" fill="#F5F5F5"/>
    <path d="M29.571 12.008H20.43A3.428 3.428 0 0 0 17 15.436v9.14a3.428 3.428 0 0 0 3.429 3.428h9.142A3.428 3.428 0 0 0 33 24.576v-9.14a3.428 3.428 0 0 0-3.429-3.428z" stroke="#fff" stroke-width="1.2"/>
    <path d="M27.286 16.008h-4.572c-.947 0-1.714.767-1.714 1.714v4.57c0 .946.767 1.714 1.714 1.714h4.572c.947 0 1.714-.768 1.714-1.714v-4.57c0-.947-.767-1.714-1.714-1.714z" stroke="#fff" stroke-width="1.2"/>
    <path d="M50 59.998V52c0 5.519-2.48 7.998-8 7.998h8z" fill="#F5F5F5"/>
    <rect x="14" y="17.008" width="3" height="1.5" rx=".75" fill="#fff"/>
    <rect x="33" y="17.008" width="3" height="1.5" rx=".75" fill="#fff"/>
    <rect x="14" y="21.008" width="3" height="1.5" rx=".75" fill="#fff"/>
    <rect x="33" y="21.008" width="3" height="1.5" rx=".75" fill="#fff"/>
    <rect x="28" y="9.016" width="3" height="1.5" rx=".75" transform="rotate(90 28 9.016)" fill="#fff"/>
    <rect x="28" y="28.008" width="3" height="1.5" rx=".75" transform="rotate(90 28 28.008)" fill="#fff"/>
    <rect x="24" y="9.016" width="3" height="1.5" rx=".75" transform="rotate(90 24 9.016)" fill="#fff"/>
    <rect x="24" y="28.008" width="3" height="1.5" rx=".75" transform="rotate(90 24 28.008)" fill="#fff"/>
</svg>
