<svg width="50" height="60" viewBox="0 0 50 60" fill="none" xmlns="http://www.w3.org/2000/svg">
    <path d="M45 0H5a5 5 0 0 0-5 5v50a5 5 0 0 0 5 5h40a5 5 0 0 0 5-5V5a5 5 0 0 0-5-5z" fill="#393939"/>
    <path d="M12.441 47.931h-.869v-5.973h.87v5.973zm-7.887-.66v-4.686h.858v1.595h2.123v-1.606h.847v1.98h1.265v-2.409h.847v5.687h-.847v-2.541H8.382v1.98H4.554zm.858-2.387v1.672h2.123v-1.672H5.412zm7.03 3.542v3.399h-.903v-2.662H5.81v-.737h6.632zm9.92 3.399h-.902v-5.412h-2.035v-.748h2.035v-3.729h.902v9.889zm-6.776-3.113c1.793 0 2.915-.077 4.268-.308l.1.737c-1.43.264-2.63.308-4.51.308h-.76v-6.611h4.565v.748h-3.663v2.035h3.234v.726h-3.234v2.365zm11.722-1.144v-4.961h.89v1.738h2.662v-1.738h.892v1.155h2.277v-1.804h.912v7.293h-.913v-2.629h-2.276v.946h-4.444zm4.444-1.683h2.277v-1.397H31.75v1.397zm-3.553-.825v1.782h2.661V45.06h-2.662zm6.973 6.534h-6.577v-3.058h.902v2.321h5.675v.737zm9.878-5.159c-1.54-.264-3.003-1.111-3.652-2.31-.616 1.199-2.112 2.046-3.641 2.31l-.363-.726c1.804-.264 3.53-1.441 3.53-2.86v-.55h.947v.55c0 1.375 1.76 2.596 3.553 2.86l-.374.726zm-3.223 1.815v3.575h-.902V48.25h-3.982v-.748h8.91l.01.748h-4.036z" fill="#D4ED3E"/>
    <path d="M33 9.25H17A2.75 2.75 0 0 0 14.25 12v16A2.75 2.75 0 0 0 17 30.75h16A2.75 2.75 0 0 0 35.75 28V12A2.75 2.75 0 0 0 33 9.25z" stroke="#D4ED3E"/>
    <path d="M21.401 16.168h1.477l1.308 4.572c.3 1.008.48 1.872.803 2.892h.06c.3-1.02.517-1.884.805-2.892l1.308-4.572h1.416L25.818 25h-1.645l-2.771-8.832z" fill="#D4ED3E"/>
</svg>
