<svg width="50" height="61" viewBox="0 0 50 61" fill="none" xmlns="http://www.w3.org/2000/svg">
    <path d="M45 .016H5a5 5 0 0 0-5 5v50a5 5 0 0 0 5 5h40a5 5 0 0 0 5-5v-50a5 5 0 0 0-5-5z" fill="#393939"/>
    <path d="M23.712 47.65h-.913v-3.091h-2.794v-.748h2.794v-1.848h.913v5.687zm-2.31-1.023c-1.529.319-2.849.396-4.499.396h-.748v-4.466h.902v3.696c1.507 0 2.816-.1 4.235-.396l.11.77zm2.31 1.507v3.564h-6.358v-3.564h6.358zm-.88 2.838v-2.123h-4.598v2.123h4.598zm11 .88h-.903v-5.5h-2.31v3.003H26.1v-6.611h.89v2.563h2.75v-2.563h.88v2.882h2.31v-3.663h.902v9.889zm-6.843-5.83v2.596h2.75v-2.596h-2.75z" fill="#D4ED3E"/>
    <path d="M33 9.25H17A2.75 2.75 0 0 0 14.25 12v16A2.75 2.75 0 0 0 17 30.75h16A2.75 2.75 0 0 0 35.75 28V12A2.75 2.75 0 0 0 33 9.25z" stroke="#D4ED3E" stroke-width="1.2"/>
    <path d="M21.26 24.016H17.3v-.74h1.63v-5.28c0-.09 0-.18.01-.25l-1.33 1.19-.49-.59 1.97-1.7h.73v6.63h1.44v.74zm6.147 0h-4.92v-.64l2.53-2.43c.77-.82 1.33-1.45 1.33-2.31-.03-.88-.59-1.29-1.35-1.29-.84 0-1.46.6-1.46 1.44l-.9-.15c.19-1.35 1.16-2.08 2.41-2.08 1.25 0 2.22.76 2.22 2.06 0 1.09-.7 1.85-1.53 2.68l-2.05 2.03c.28-.08.58-.12.83-.12h2.89v.81zm1.217-5.36c.19-1.33 1.16-2.09 2.41-2.09 1.27 0 2.17.78 2.17 1.9 0 .96-.49 1.44-1.29 1.71.96.24 1.46.85 1.46 1.77 0 1.34-1.11 2.2-2.48 2.2-1.58 0-2.15-.85-2.5-1.93l.82-.34c.02.11.07.26.15.45.31.64.76 1.03 1.52 1.03 1.05 0 1.56-.74 1.56-1.39 0-.79-.33-1.37-1.9-1.37v-.66c1.29-.03 1.75-.56 1.75-1.32 0-.84-.54-1.25-1.31-1.25-.84 0-1.45.62-1.45 1.44l-.91-.15z" fill="#D4ED3E"/>
    <path d="M50 60.016v-8c0 5.52-2.48 8-8 8h8z" fill="#fff"/>
</svg>
