<svg width="50" height="60" viewBox="0 0 50 60" fill="none" xmlns="http://www.w3.org/2000/svg">
    <path d="M12.243 47.634h-.913v-3.091H8.536v-.748h2.794v-1.848h.913v5.687zm-2.31-1.023c-1.529.319-2.849.396-4.499.396h-.748v-4.466h.902v3.696c1.507 0 2.816-.099 4.235-.396l.11.77zm2.31 1.507v3.564H5.885v-3.564h6.358zm-.88 2.838v-2.123H6.765v2.123h4.598zm11 .88h-.903v-5.5h-2.31v3.003h-4.52v-6.611h.89v2.563h2.75v-2.563h.88v2.882h2.31v-3.663h.902v9.889zm-6.843-5.83v2.596h2.75v-2.596h-2.75zm11.788 1.562v-4.961h.89v1.738h2.662v-1.738h.892v1.155h2.277v-1.804h.912v7.293h-.913v-2.629h-2.276v.946h-4.444zm4.444-1.683h2.277v-1.397H31.75v1.397zm-3.553-.825v1.782h2.661V45.06h-2.662zm6.973 6.534h-6.577v-3.058h.902v2.321h5.675v.737zm9.878-5.159c-1.54-.264-3.003-1.111-3.652-2.31-.616 1.199-2.112 2.046-3.641 2.31l-.363-.726c1.804-.264 3.53-1.441 3.53-2.86v-.55h.947v.55c0 1.375 1.76 2.596 3.553 2.86l-.374.726zm-3.223 1.815v3.575h-.902V48.25h-3.982v-.748h8.91l.01.748h-4.036z" fill="#F5F5F5"/>
    <path d="M33 9.25H17A2.75 2.75 0 0 0 14.25 12v16A2.75 2.75 0 0 0 17 30.75h16A2.75 2.75 0 0 0 35.75 28V12A2.75 2.75 0 0 0 33 9.25z" stroke="#F5F5F5"/>
    <path d="M21.758 16.168h1.428l2.928 5.184.924 1.872h.06c-.084-.912-.18-1.98-.18-2.94v-4.116h1.32V25H26.81l-2.928-5.208-.924-1.848h-.06c.084.912.18 1.932.18 2.892V25h-1.32v-8.832z" fill="#fff"/>
</svg>
