<svg width="50" height="60" viewBox="0 0 50 60" fill="none" xmlns="http://www.w3.org/2000/svg">
    <path d="M17.993 46.699h1.584v-.748h-1.584v-4.004h-.902v9.867h.902v-5.115zm-2.508-3.729H11.03v.737h3.553a7.367 7.367 0 0 1-.297 1.727l-3.75.253.153.792 3.322-.319c-.616 1.331-1.683 2.431-3.52 3.344l.495.693c3.52-1.76 4.5-4.367 4.5-7.227zm13.42 8.833v-9.856h-.858v9.856h.857zm-1.959-9.636h-.858v3.498h-1.463v-2.574h-3.75v6.072h3.75v-2.75h1.463v4.906h.858v-9.152zm-5.225 1.639h2.069v4.642H21.72v-4.642zm16.522 2.816h1.617v-.759h-1.617v-3.927h-.902v9.889h.902v-5.203zm-6.314 2.068v-2.288h3.553V42.86h-4.466v.737h3.575v2.068h-3.542v3.773h.78c1.882 0 3.19-.088 4.742-.352l-.1-.748c-1.473.297-2.75.352-4.542.352z" fill="#F5F5F5"/>
    <mask id="dz9ruc4k9a" style="mask-type:luminance" maskUnits="userSpaceOnUse" x="14" y="9" width="22" height="22">
        <path d="M36 9H14v22h22V9z" fill="#fff"/>
    </mask>
    <g mask="url(#dz9ruc4k9a)">
        <path d="m20.885 12.638-.4 1.2h-2.88a2.468 2.468 0 0 0-2.464 2.467v9.862a2.468 2.468 0 0 0 2.465 2.465h14.793a2.468 2.468 0 0 0 2.465-2.465v-9.862a2.468 2.468 0 0 0-2.465-2.466H29.52l-.4-1.2a1.844 1.844 0 0 0-1.753-1.264H22.64a1.844 1.844 0 0 0-1.756 1.263zm4.118 4.9a3.7 3.7 0 1 1 0 7.399 3.7 3.7 0 0 1 0-7.399z" stroke="#fff" stroke-width="1.5"/>
    </g>
</svg>
