<svg width="34" height="28" viewBox="0 0 34 28" fill="none" xmlns="http://www.w3.org/2000/svg">
    <path d="M30 1.25H4A2.75 2.75 0 0 0 1.25 4v20A2.75 2.75 0 0 0 4 26.75h26A2.75 2.75 0 0 0 32.75 24V4A2.75 2.75 0 0 0 30 1.25z" fill="#393939" stroke="#D4ED3E"/>
    <path d="M15.537 9.088v10.848H14.3V9.088h1.236zM10.1 14.104c-1.62 0-2.796-.936-2.796-2.28 0-1.332 1.176-2.268 2.796-2.268 1.62 0 2.796.936 2.796 2.268 0 1.344-1.176 2.28-2.796 2.28zm0-3.528c-.96 0-1.608.48-1.608 1.248s.648 1.26 1.608 1.26c.96 0 1.608-.492 1.608-1.26s-.648-1.248-1.608-1.248zm3.576 4.848c-.96.192-1.944.288-2.904.372V19.6H9.537v-3.732a79.4 79.4 0 0 1-2.82.048l-.144-1.02c1.944 0 4.692-.036 7.02-.384l.084.912zM26.54 9.076v10.836h-1.248V9.076h1.248zm-4.836 3.456c0 1.716 1.056 3.456 2.736 4.2l-.66.96c-1.248-.54-2.184-1.656-2.676-3.012-.48 1.452-1.428 2.616-2.688 3.192l-.684-.948c1.704-.768 2.736-2.604 2.736-4.392v-.624h-2.4v-.996h2.4V9.304h1.236v1.608h2.352v.996h-2.352v.624z" fill="#D4ED3E"/>
</svg>
