<svg width="50" height="60" viewBox="0 0 50 60" fill="none" xmlns="http://www.w3.org/2000/svg">
    <path d="M45 0H5a5 5 0 0 0-5 5v50a5 5 0 0 0 5 5h40a5 5 0 0 0 5-5V5a5 5 0 0 0-5-5z" fill="#393939"/>
    <path d="M18.315 46.699v5.115h-.902v-9.867h.902v4.004h1.584v.748h-1.584zm-2.508-3.729c0 2.86-.98 5.467-4.5 7.227l-.494-.693c1.837-.913 2.904-2.013 3.52-3.344l-3.322.319-.154-.792 3.75-.253c.166-.55.265-1.122.298-1.727h-3.553v-.737h4.455zm9.492 3.19c-2.08 0-3.454-.759-3.454-1.98s1.375-1.98 3.454-1.98 3.454.759 3.454 1.98-1.375 1.98-3.454 1.98zm0-3.234c-1.496 0-2.508.473-2.508 1.254 0 .759 1.012 1.243 2.508 1.243 1.529 0 2.508-.484 2.508-1.243 0-.792-.968-1.254-2.508-1.254zm4.477 4.763h-3.938v1.991h-.913v-1.991h-4.092v-.737h8.943v.737zm-.98 3.157v.748h-6.82v-2.882h.903v2.134h5.918zm10.296.979h-.902v-5.412h-2.035v-.748h2.035v-3.729h.902v9.889zm-6.776-3.113c1.793 0 2.915-.077 4.268-.308l.099.737c-1.43.264-2.63.308-4.51.308h-.76v-6.611h4.566v.748h-3.663v2.035h3.234v.726h-3.234v2.365z" fill="#D4ED3E"/>
    <mask id="67me2t1dsa" style="mask-type:luminance" maskUnits="userSpaceOnUse" x="14" y="9" width="22" height="23">
        <path d="M14 31.016h22v-22H14v22z" fill="#fff"/>
    </mask>
    <g mask="url(#67me2t1dsa)">
        <path d="M30.556 28.088a.6.6 0 0 0 .431-.187.653.653 0 0 0 .18-.45V12.564a.653.653 0 0 0-.18-.45.6.6 0 0 0-.431-.187H19.444a.6.6 0 0 0-.431.187.653.653 0 0 0-.18.45v14.889c0 .168.065.33.18.45a.6.6 0 0 0 .431.186h11.112zM33 27.453c0 .675-.258 1.323-.716 1.8a2.398 2.398 0 0 1-1.728.748H19.444c-.648 0-1.27-.27-1.728-.747A2.606 2.606 0 0 1 17 27.452v-14.89c0-.674.259-1.322.717-1.8a2.398 2.398 0 0 1 1.727-.746h11.112c.648 0 1.27.27 1.727.747.459.477.716 1.125.717 1.8v14.889zm-4.722-11.643h-6.556a.601.601 0 0 1-.431-.187.653.653 0 0 1-.18-.45v-.637c0-.168.065-.33.18-.45a.601.601 0 0 1 .431-.187h6.556c.162.001.317.068.431.188.115.119.18.28.18.45v.636c0 .169-.065.33-.18.45a.601.601 0 0 1-.431.187zm.694 5.866c0 .169-.065.33-.18.45a.601.601 0 0 1-.431.187h-.611a.601.601 0 0 1-.431-.187.653.653 0 0 1-.18-.45v-.637c0-.169.065-.33.18-.45a.601.601 0 0 1 .431-.187h.611c.162.001.317.068.431.188.115.119.18.28.18.45v.636zm-.611 3.822h-.611a.601.601 0 0 1-.431-.187.653.653 0 0 1-.18-.45v-.637c0-.168.065-.33.18-.45a.601.601 0 0 1 .431-.186h.611c.162 0 .317.067.431.187.115.119.18.28.18.45v.635c0 .169-.065.33-.18.45a.6.6 0 0 1-.431.187v.001zm-2.444-3.822c0 .169-.065.33-.18.45a.601.601 0 0 1-.431.187h-.611a.601.601 0 0 1-.431-.187.653.653 0 0 1-.18-.45v-.637c0-.169.065-.33.18-.45a.601.601 0 0 1 .431-.187h.611c.162.001.317.068.431.188.115.119.18.28.18.45v.636zm-.611 3.822h-.611a.601.601 0 0 1-.431-.187.653.653 0 0 1-.18-.45v-.637c0-.168.065-.33.18-.45a.601.601 0 0 1 .431-.186h.611c.162 0 .317.067.431.187.115.119.18.28.18.45v.635c0 .169-.065.33-.18.45a.6.6 0 0 1-.431.187v.001zm-2.444-3.822c0 .169-.065.33-.18.45a.601.601 0 0 1-.431.187h-.611a.601.601 0 0 1-.431-.187.653.653 0 0 1-.18-.45v-.637c0-.169.065-.33.18-.45a.601.601 0 0 1 .431-.187h.61c.162.001.317.068.431.188.115.119.18.28.18.45l.001.636zm-.611 3.822h-.611a.601.601 0 0 1-.431-.187.653.653 0 0 1-.18-.45v-.637c0-.168.065-.33.18-.45a.601.601 0 0 1 .431-.186h.61c.162 0 .317.067.431.187.115.119.18.28.18.45v.635c0 .169-.065.33-.18.45a.6.6 0 0 1-.431.187l.001.001z" fill="#D4ED3E"/>
        <path d="M28.793 19.125a.653.653 0 0 0 .18-.45v-.636a.653.653 0 0 0-.18-.45.6.6 0 0 0-.431-.187h-.611a.6.6 0 0 0-.432.187.652.652 0 0 0-.18.45v.637c.001.168.066.33.18.45a.6.6 0 0 0 .432.186h.61a.6.6 0 0 0 .432-.187zM25.738 19.125a.653.653 0 0 0 .18-.45v-.636a.653.653 0 0 0-.18-.45.6.6 0 0 0-.431-.187h-.611a.6.6 0 0 0-.432.187.652.652 0 0 0-.18.45v.637c.001.168.066.33.18.45a.6.6 0 0 0 .432.186h.61a.6.6 0 0 0 .432-.187zM22.683 19.125a.653.653 0 0 0 .18-.45l-.001-.636a.653.653 0 0 0-.18-.45.6.6 0 0 0-.431-.187h-.61a.601.601 0 0 0-.432.187.652.652 0 0 0-.18.45v.637c.001.168.066.33.18.45a.6.6 0 0 0 .432.186h.61a.6.6 0 0 0 .432-.187z" fill="#D4ED3E"/>
        <path d="M30.556 28.088a.6.6 0 0 0 .431-.187.653.653 0 0 0 .18-.45V12.564a.653.653 0 0 0-.18-.45.6.6 0 0 0-.431-.187H19.444a.6.6 0 0 0-.431.187.653.653 0 0 0-.18.45v14.889c0 .168.065.33.18.45a.6.6 0 0 0 .431.186h11.112zM33 27.453c0 .675-.258 1.323-.716 1.8a2.398 2.398 0 0 1-1.728.748H19.444c-.648 0-1.27-.27-1.728-.747A2.606 2.606 0 0 1 17 27.452v-14.89c0-.674.259-1.322.717-1.8a2.398 2.398 0 0 1 1.727-.746h11.112c.648 0 1.27.27 1.727.747.459.477.716 1.125.717 1.8v14.889zm-4.722-11.643h-6.556a.601.601 0 0 1-.431-.187.653.653 0 0 1-.18-.45v-.637c0-.168.065-.33.18-.45a.601.601 0 0 1 .431-.187h6.556c.162.001.317.068.431.188.115.119.18.28.18.45v.636c0 .169-.065.33-.18.45a.601.601 0 0 1-.431.187zm.694 5.866c0 .169-.065.33-.18.45a.601.601 0 0 1-.431.187h-.611a.601.601 0 0 1-.431-.187.653.653 0 0 1-.18-.45v-.637c0-.169.065-.33.18-.45a.601.601 0 0 1 .431-.187h.611c.162.001.317.068.431.188.115.119.18.28.18.45v.636zm-.611 3.822h-.611a.601.601 0 0 1-.431-.187.653.653 0 0 1-.18-.45v-.637c0-.168.065-.33.18-.45a.601.601 0 0 1 .431-.186h.611c.162 0 .317.067.431.187.115.119.18.28.18.45v.635c0 .169-.065.33-.18.45a.6.6 0 0 1-.431.187v.001zm-2.444-3.822c0 .169-.065.33-.18.45a.601.601 0 0 1-.431.187h-.611a.601.601 0 0 1-.431-.187.653.653 0 0 1-.18-.45v-.637c0-.169.065-.33.18-.45a.601.601 0 0 1 .431-.187h.611c.162.001.317.068.431.188.115.119.18.28.18.45v.636zm-.611 3.822h-.611a.601.601 0 0 1-.431-.187.653.653 0 0 1-.18-.45v-.637c0-.168.065-.33.18-.45a.601.601 0 0 1 .431-.186h.611c.162 0 .317.067.431.187.115.119.18.28.18.45v.635c0 .169-.065.33-.18.45a.6.6 0 0 1-.431.187v.001zm-2.444-3.822c0 .169-.065.33-.18.45a.601.601 0 0 1-.431.187h-.611a.601.601 0 0 1-.431-.187.653.653 0 0 1-.18-.45v-.637c0-.169.065-.33.18-.45a.601.601 0 0 1 .431-.187h.61c.162.001.317.068.431.188.115.119.18.28.18.45l.001.636zm-.611 3.822h-.611a.601.601 0 0 1-.431-.187.653.653 0 0 1-.18-.45v-.637c0-.168.065-.33.18-.45a.601.601 0 0 1 .431-.186h.61c.162 0 .317.067.431.187.115.119.18.28.18.45v.635c0 .169-.065.33-.18.45a.6.6 0 0 1-.431.187l.001.001z" stroke="#393939" stroke-width=".5"/>
        <path d="M28.793 19.125a.653.653 0 0 0 .18-.45v-.636a.653.653 0 0 0-.18-.45.6.6 0 0 0-.431-.187h-.611a.6.6 0 0 0-.432.187.652.652 0 0 0-.18.45v.637c.001.168.066.33.18.45a.6.6 0 0 0 .432.186h.61a.6.6 0 0 0 .432-.187zM25.738 19.125a.653.653 0 0 0 .18-.45v-.636a.653.653 0 0 0-.18-.45.6.6 0 0 0-.431-.187h-.611a.6.6 0 0 0-.432.187.652.652 0 0 0-.18.45v.637c.001.168.066.33.18.45a.6.6 0 0 0 .432.186h.61a.6.6 0 0 0 .432-.187zM22.683 19.125a.653.653 0 0 0 .18-.45l-.001-.636a.653.653 0 0 0-.18-.45.6.6 0 0 0-.431-.187h-.61a.601.601 0 0 0-.432.187.652.652 0 0 0-.18.45v.637c.001.168.066.33.18.45a.6.6 0 0 0 .432.186h.61a.6.6 0 0 0 .432-.187z" stroke="#393939" stroke-width=".5"/>
    </g>
</svg>
