<svg width="50" height="60" viewBox="0 0 50 60" fill="none" xmlns="http://www.w3.org/2000/svg">
    <path d="M45 0H5a5 5 0 0 0-5 4.999v49.987a5 5 0 0 0 5 4.998h40a5 5 0 0 0 5-4.998V4.999A5 5 0 0 0 45 0z" fill="#393939"/>
    <path d="M17.173 46.636v5.17h-.902V41.95h.902v3.927h1.628v.76h-1.628zM14.5 42.93v6.37H9.979v-6.37H14.5zm-.88 5.643v-4.917h-2.761v4.917h2.761zm10.526-1.914c-2.057 0-3.443-.847-3.443-2.167 0-1.309 1.386-2.156 3.443-2.156 2.057 0 3.454.847 3.454 2.156 0 1.32-1.397 2.167-3.454 2.167zm0-3.597c-1.496 0-2.519.55-2.519 1.43 0 .88 1.023 1.441 2.52 1.441 1.506 0 2.53-.56 2.53-1.44 0-.88-1.024-1.43-2.53-1.43zm.451 5.28v3.476h-.902v-3.476h-3.993v-.748h8.932v.748h-4.037zm13.32-.693c-1.496-.352-3.047-1.397-3.663-2.849-.616 1.441-2.178 2.497-3.652 2.85l-.407-.749c1.716-.352 3.586-1.815 3.586-3.509v-.759h.946v.76c0 1.671 1.87 3.19 3.597 3.508l-.407.748zm.847 2.838h-8.943v-.748h8.943v.748zM25.372 9A7.372 7.372 0 0 0 18 16.37v7.258a7.367 7.367 0 0 0 7.371 7.455 7.373 7.373 0 0 0 7.37-7.455V16.37A7.368 7.368 0 0 0 25.372 9zm5.9 14.627a5.902 5.902 0 0 1-5.904 5.903 5.905 5.905 0 0 1-5.904-5.903V16.37a5.902 5.902 0 0 1 5.904-5.902 5.905 5.905 0 0 1 5.904 5.902v7.258zm-5.168-9.971v3.263a.734.734 0 0 1-1.467 0v-3.263a.733.733 0 0 1 1.466 0z" fill="#D4ED3E"/>
</svg>
