<svg width="60" height="61" viewBox="0 0 57 61" fill="none" xmlns="http://www.w3.org/2000/svg">
    <path d="M4.229 45.357v-3.256h.89v.935h4.797v-.935h.89v3.256H4.23zm.89-1.639v.946h4.797v-.946H5.12zm2.839 4.136h2.87v2.2H5.033v.957h6.094v.693H4.152v-2.31h5.786v-.858h-5.82v-.682h2.938v-.968H3.04v-.726h8.932v.726H7.958v.968zm13.309 3.971h-.902v-9.889h.902v9.889zm-6.622-3.135c1.617 0 3.08-.088 4.796-.352l.088.737c-1.793.297-3.267.363-4.972.363h-.814v-3.784h3.63v-2.057H13.71v-.737h4.576v3.531h-3.641v2.299zm13.848-3.267c-.176 1.21-1.188 2.046-2.508 2.046-1.452 0-2.541-1.012-2.541-2.431 0-1.441 1.089-2.464 2.541-2.464 1.331 0 2.343.858 2.519 2.112h2.002v-2.739h.913v7.271h-.913v-3.795h-2.013zm-4.191-.385c0 .968.715 1.639 1.683 1.639.968 0 1.683-.671 1.683-1.639 0-.979-.715-1.672-1.683-1.672-.968 0-1.683.693-1.683 1.672zm7.392 6.556h-6.589v-3.102h.913v2.365h5.676v.737zm4.67-4.026v-4.961h.891v1.738h2.662v-1.738h.891v1.155h2.277v-1.804h.913v7.293h-.913v-2.629h-2.277v.946h-4.444zm4.444-1.683h2.277v-1.397h-2.277v1.397zm-3.553-.825v1.782h2.662V45.06h-2.662zm6.974 6.534h-6.578v-3.058h.902v2.321h5.676v.737zm9.877-5.159c-1.54-.264-3.003-1.111-3.652-2.31-.616 1.199-2.112 2.046-3.64 2.31l-.364-.726c1.804-.264 3.531-1.441 3.531-2.86v-.55h.946v.55c0 1.375 1.76 2.596 3.553 2.86l-.374.726zm-3.223 1.815v3.575h-.902V48.25H46v-.748h8.91l.011.748h-4.037z" fill="#F5F5F5"/>
    <path d="M37 9.25H21A2.75 2.75 0 0 0 18.25 12v16A2.75 2.75 0 0 0 21 30.75h16A2.75 2.75 0 0 0 39.75 28V12A2.75 2.75 0 0 0 37 9.25z" stroke="#F5F5F5"/>
    <path d="M26.164 16.168H28.9c1.812 0 3.12.576 3.12 2.172 0 .852-.456 1.632-1.26 1.908v.06c1.008.228 1.74.9 1.74 2.1 0 1.764-1.416 2.592-3.384 2.592h-2.952v-8.832zm2.58 3.684c1.344 0 1.908-.504 1.908-1.332 0-.924-.624-1.272-1.872-1.272h-1.224v2.604h1.188zm.216 4.056c1.404 0 2.172-.468 2.172-1.572 0-1.008-.768-1.428-2.172-1.428h-1.404v3h1.404z" fill="#fff"/>
</svg>
