<svg width="63" height="60" viewBox="0 0 63 60" fill="none" xmlns="http://www.w3.org/2000/svg">
    <rect x=".5" y=".5" width="62" height="59" rx="3.5" fill="#393939" stroke="#494949"/>
    <path d="M21.997 43.702v-.726h2.453v-1.133h.902v1.133h2.464v.726h-5.82zm7.623 1.606v2.563h-.902v-5.929h.902v2.618h1.463v.748H29.62zm-2.354.65c0 1.066-.957 1.748-2.365 1.748-1.408 0-2.354-.682-2.354-1.749 0-1.089.946-1.76 2.354-1.76 1.408 0 2.365.671 2.365 1.76zm-3.861 0c0 .66.572 1.077 1.496 1.077s1.507-.418 1.507-1.078c0-.66-.583-1.078-1.507-1.078-.924 0-1.496.418-1.496 1.078zm6.215 2.474v3.234h-6.193v-3.234h6.193zm-.891 2.508v-1.793h-4.422v1.793h4.422zM40.2 46.42c-1.54-.265-3.003-1.112-3.652-2.31-.616 1.198-2.112 2.045-3.641 2.31l-.363-.727c1.804-.264 3.531-1.44 3.531-2.86v-.55h.946v.55c0 1.375 1.76 2.596 3.553 2.86l-.374.726zm-3.223 1.814v3.575h-.902v-3.575h-3.982v-.748h8.91l.011.748h-4.037z" fill="#F5F5F5"/>
    <path d="m21.626 31.016.007-.005.32.32a3.17 3.17 0 0 0 5.321-1.483v-.002l1.044-4.105.048-.189h1.996a1.03 1.03 0 0 0 0-2.06H28.88l.078-.31.716-2.88.243.06a.86.86 0 0 1 1.446-.4l-9.737 11.054zm0 0a1.033 1.033 0 0 1 .02-1.437 1.031 1.031 0 0 1 1.457 0l.32.32-1.797 1.117zm9.915-11.23L21.42 31.163a1.28 1.28 0 0 1 1.86-1.761l.32.32a.86.86 0 0 0 1.446-.4l.242.06.877-3.52.077-.31h-1.641a1.03 1.03 0 0 1 0-2.06h2.157l.047-.19.87-3.49v-.001a3.171 3.171 0 0 1 5.322-1.483l.32.32a1.03 1.03 0 0 1-1.458 1.457l-.32-.32z" fill="#F5F5F5" stroke="#494949" stroke-width=".5"/>
    <path d="M26.52 11.008h9.92a4.23 4.23 0 0 1 4.23 4.23v9.92a4.23 4.23 0 0 1-4.23 4.23H34.2a1.03 1.03 0 1 1 0-2.06h2.24a2.17 2.17 0 0 0 2.17-2.17v-9.92a2.17 2.17 0 0 0-2.17-2.17h-9.92a2.17 2.17 0 0 0-2.17 2.17v3.2a1.03 1.03 0 0 1-2.06 0v-3.2a4.23 4.23 0 0 1 4.23-4.23z" fill="#F5F5F5" stroke="#393939" stroke-width=".5"/>
</svg>
