<svg width="50" height="60" viewBox="0 0 50 60" fill="none" xmlns="http://www.w3.org/2000/svg">
    <path d="M45 0H5a5 5 0 0 0-5 5v50a5 5 0 0 0 5 5h40a5 5 0 0 0 5-5V5a5 5 0 0 0-5-5z" fill="#393939" />
    <path d="M13.478 51.828h-.902v-5.555h-2.343v3.036H5.745v-6.402h4.488v2.63h2.343v-3.598h.902v9.89zm-6.853-8.206v4.972h2.717v-4.972H6.625zm16.972 8.195h-.902v-5.412H20.66v-.748h2.035v-3.729h.902v9.89zm-6.776-3.113c1.793 0 2.915-.077 4.268-.308l.099.737c-1.43.264-2.63.308-4.51.308h-.76v-6.61h4.566v.747H16.82v2.035h3.234v.726H16.82v2.365zm16.862 3.113h-.902v-9.889h.902v9.89zm-6.622-3.135c1.617 0 3.08-.088 4.796-.352l.088.737c-1.793.297-3.267.363-4.972.363h-.814v-3.784h3.63V43.59h-3.663v-.737h4.576v3.531H27.06v2.3zm13.859-3.817c-.176 1.133-1.21 1.892-2.519 1.892-1.463 0-2.541-.924-2.541-2.244 0-1.32 1.078-2.233 2.541-2.233 1.32 0 2.332.748 2.508 1.86h2.013v-2.19h.902v5.016h-.902v-2.1H40.92zm-4.202-.352c0 .88.715 1.507 1.683 1.507.968 0 1.683-.627 1.683-1.507 0-.88-.715-1.496-1.683-1.496-.968 0-1.683.616-1.683 1.496zm7.48 7.161h-6.71V49.21h5.445v-.99h-5.467v-.715h6.358v2.376h-5.445v1.078h5.819v.715z"
          fill="#D4ED3E" />
    <path d="M34.75 20.747c0 5.521-4.477 9.997-10 9.997s-10-4.476-10-9.997c0-5.52 4.477-9.997 10-9.997s10 4.476 10 9.997z"
          stroke="#D4ED3E" stroke-width="1.5" />
    <path d="M20.459 16.273h1.598l2.778 6.784h.102l2.779-6.784h1.598V25H28.06v-6.315h-.08l-2.575 6.302h-1.04l-2.573-6.307h-.081V25h-1.253v-8.727z"
          fill="#D4ED3E" />
</svg>