<svg width="50" height="61" viewBox="0 0 50 61" fill="none" xmlns="http://www.w3.org/2000/svg">
<path d="M23.712 47.6496H22.799V44.5586H20.005V43.8106H22.799V41.9626H23.712V47.6496ZM21.402 46.6266C19.873 46.9456 18.553 47.0226 16.903 47.0226H16.155V42.5566H17.057V46.2526C18.564 46.2526 19.873 46.1536 21.292 45.8566L21.402 46.6266ZM23.712 48.1336V51.6976H17.354V48.1336H23.712ZM22.832 50.9716V48.8486H18.234V50.9716H22.832ZM33.8311 51.8516H32.9291V46.3516H30.6191V49.3546H26.0981V42.7436H26.9891V45.3066H29.7391V42.7436H30.6191V45.6256H32.9291V41.9626H33.8311V51.8516ZM26.9891 46.0216V48.6176H29.7391V46.0216H26.9891Z" fill="#F5F5F5"/>
<path d="M33 9.25H17C15.4812 9.25 14.25 10.4812 14.25 12V28C14.25 29.5188 15.4812 30.75 17 30.75H33C34.5188 30.75 35.75 29.5188 35.75 28V12C35.75 10.4812 34.5188 9.25 33 9.25Z" stroke="#F5F5F5" stroke-width="1.2"/>
<path d="M21.26 24.0156H17.3V23.2756H18.93V17.9956C18.93 17.9056 18.93 17.8156 18.94 17.7456L17.61 18.9356L17.12 18.3456L19.09 16.6456H19.82V23.2756H21.26V24.0156ZM27.407 24.0156H22.487V23.3756L25.017 20.9456C25.787 20.1256 26.347 19.4956 26.347 18.6356C26.317 17.7556 25.757 17.3456 24.997 17.3456C24.157 17.3456 23.537 17.9456 23.537 18.7856L22.637 18.6356C22.827 17.2856 23.797 16.5556 25.047 16.5556C26.297 16.5556 27.267 17.3156 27.267 18.6156C27.267 19.7056 26.567 20.4656 25.737 21.2956L23.687 23.3256C23.967 23.2456 24.267 23.2056 24.517 23.2056H27.407V24.0156ZM28.6241 18.6556C28.8141 17.3256 29.7841 16.5656 31.0341 16.5656C32.3041 16.5656 33.2041 17.3456 33.2041 18.4656C33.2041 19.4256 32.7141 19.9056 31.9141 20.1756C32.8741 20.4156 33.3741 21.0256 33.3741 21.9456C33.3741 23.2856 32.2641 24.1456 30.8941 24.1456C29.3141 24.1456 28.7441 23.2956 28.3941 22.2156L29.2141 21.8756C29.2341 21.9856 29.2841 22.1356 29.3641 22.3256C29.6741 22.9656 30.1241 23.3556 30.8841 23.3556C31.9341 23.3556 32.4441 22.6156 32.4441 21.9656C32.4441 21.1756 32.1141 20.5956 30.5441 20.5956V19.9356C31.8341 19.9056 32.2941 19.3756 32.2941 18.6156C32.2941 17.7756 31.7541 17.3656 30.9841 17.3656C30.1441 17.3656 29.5341 17.9856 29.5341 18.8056L28.6241 18.6556Z" fill="white"/>
<path d="M50 60.0156V52.0156C50 57.5356 47.52 60.0156 42 60.0156H50Z" fill="#F5F5F5"/>
</svg>
