<svg width="50" height="60" viewBox="0 0 50 60" fill="none" xmlns="http://www.w3.org/2000/svg">
    <path d="M18.258 46.703v5.115h-.9V41.96h.9v3.993h1.628v.749h-1.628zm-4.28-2.123a5.036 5.036 0 0 0 2.509 4.223l-.561.715a5.318 5.318 0 0 1-2.387-3.07 5.465 5.465 0 0 1-2.453 3.268l-.54-.726a5.242 5.242 0 0 0 2.542-4.411v-1.771h.89v1.772zm11.264 1.583c-2.08 0-3.454-.76-3.454-1.98 0-1.221 1.375-1.98 3.454-1.98s3.454.759 3.454 1.98c0 1.22-1.375 1.98-3.454 1.98zm0-3.234c-1.5 0-2.508.473-2.508 1.254 0 .759 1.012 1.243 2.508 1.243 1.529 0 2.508-.484 2.508-1.243 0-.792-.968-1.254-2.508-1.254zm4.477 4.763H25.78v1.99h-.913v-1.99h-4.092v-.737h8.943v.737zm-.98 3.157v.748h-6.82v-2.882h.9v2.134h5.92zm3.3-3.432v-4.565h6.678v.75H32.93v3.08h5.885v.738l-6.775-.003zm7.81 3.069h-8.951v-.748h8.954l-.002.748zM25.258 29.906c-.38 0-.744-.14-1.024-.397l-5.49-5.015-.028-.025h-.038l-1.374-.012a3.879 3.879 0 0 1-3.866-3.866v-1.174a3.847 3.847 0 0 1 1.13-2.74 3.846 3.846 0 0 1 2.736-1.138h1.411l.028-.025 5.49-5.015a1.514 1.514 0 0 1 1.636-.269c.55.243.905.788.905 1.389v16.77a1.518 1.518 0 0 1-1.516 1.517zm-7.945-7.3h1.761c.233 0 .455.087.627.244l5.038 4.61.164.15V12.408l-.164.149-5.047 4.61a.928.928 0 0 1-.627.244h-1.762a2.012 2.012 0 0 0-2.005 2.006v1.174c-.002.531.212 1.051.588 1.427.38.379.884.588 1.42.588h.007z" fill="#fff"/>
    <path d="M25.254 29.805a1.42 1.42 0 0 0 1.42-1.42l-.001-16.77a1.42 1.42 0 0 0-2.377-1.048l-5.547 5.066H17.3a3.75 3.75 0 0 0-2.666 1.109 3.75 3.75 0 0 0-1.102 2.67v1.175a3.781 3.781 0 0 0 3.77 3.769l1.449.012 5.546 5.065c.262.24.602.372.958.372zM17.309 22.7h-.007c-.562 0-1.091-.22-1.489-.617a2.12 2.12 0 0 1-.617-1.496v-1.174a2.11 2.11 0 0 1 2.104-2.104h1.76a.83.83 0 0 0 .562-.219l5.374-4.908v15.645l-5.365-4.909a.83.83 0 0 0-.561-.218h-1.76zm7.944 7.3c-.395 0-.785-.145-1.089-.423l-5.49-5.014-1.374-.012a3.97 3.97 0 0 1-3.964-3.964v-1.174a3.97 3.97 0 0 1 3.964-3.976h1.374l5.49-5.014a1.615 1.615 0 0 1 2.704 1.192v16.77A1.615 1.615 0 0 1 25.254 30zm-7.945-7.496h1.762c.257 0 .504.097.693.27l5.038 4.61v-14.76l-5.047 4.61c-.19.174-.436.27-.693.27H17.3a1.911 1.911 0 0 0-1.909 1.909v1.174a1.912 1.912 0 0 0 1.917 1.917z" fill="#393939"/>
    <path d="M30.952 27.903a.931.931 0 0 1-.526-1.701 8.125 8.125 0 0 0 0-13.423.934.934 0 0 1 .527-1.7c.187 0 .369.055.524.161a9.989 9.989 0 0 1 0 16.5.923.923 0 0 1-.525.163zm-1.597-2.545a.931.931 0 0 1-.527-1.7 5.045 5.045 0 0 0 0-8.335.933.933 0 0 1 .527-1.7c.188 0 .37.056.525.162a6.91 6.91 0 0 1 0 11.41.925.925 0 0 1-.525.163z" fill="#fff"/>
    <path d="M30.95 27.801c.168 0 .33-.05.468-.145a9.888 9.888 0 0 0 0-16.335.833.833 0 0 0-.938 1.374 8.226 8.226 0 0 1 0 13.588.826.826 0 0 0-.348.532.831.831 0 0 0 .818.986zm-1.597-2.544c.167 0 .33-.05.468-.145a6.809 6.809 0 0 0 0-11.246.834.834 0 0 0-1.156.217.833.833 0 0 0 .218 1.156 5.145 5.145 0 0 1 0 8.5.826.826 0 0 0-.348.532.831.831 0 0 0 .818.986zM30.95 28a1.03 1.03 0 0 1-.582-1.884 8.026 8.026 0 0 0 0-13.257 1.032 1.032 0 0 1 1.164-1.704 10.089 10.089 0 0 1 0 16.665c-.178.122-.381.18-.582.18zm-1.597-2.544a1.03 1.03 0 0 1-.583-1.884 4.945 4.945 0 0 0 0-8.169 1.032 1.032 0 0 1 1.164-1.703 7.01 7.01 0 0 1 0 11.576c-.178.121-.38.18-.581.18z" fill="#393939"/>
</svg>
