<svg width="50" height="60" viewBox="0 0 50 60" fill="none" xmlns="http://www.w3.org/2000/svg">
    <path d="M18.5 51.814h-.903v-9.867h.902v9.867zm-2.85-8.844c0 2.871-1.012 5.478-4.565 7.238l-.484-.715c1.848-.88 2.937-2.002 3.553-3.333l-3.366.319-.154-.792 3.806-.253c.187-.561.275-1.111.32-1.727h-3.62v-.737h4.51zm13.815 7.579h-8.942v-.737h4.003v-2.123h-2.948v-5.038h.892v1.76h5.038v-1.76h.88v5.038h-2.949v2.123h4.026v.737zm-1.957-3.586v-1.815H22.47v1.815h5.038zm4.267.451v-4.565h6.677v.748h-5.786v3.08h5.885v.737h-6.776zm7.81 3.069H30.63v-.748h8.954v.748z" fill="#F5F5F5"/>
    <mask id="fjlohbggba" style="mask-type:luminance" maskUnits="userSpaceOnUse" x="14" y="9" width="22" height="22">
        <path d="M36 9H14v22h22V9z" fill="#fff"/>
    </mask>
    <g mask="url(#fjlohbggba)">
        <path d="M16.444 14.498a.613.613 0 0 0-.611.611v9.778a.613.613 0 0 0 .611.611h17.112a.613.613 0 0 0 .611-.61v-9.779a.613.613 0 0 0-.611-.61H16.444zM14 15.11a2.447 2.447 0 0 1 2.444-2.445h17.112A2.447 2.447 0 0 1 36 15.11v9.778a2.447 2.447 0 0 1-2.444 2.444H16.444A2.447 2.447 0 0 1 14 24.887V15.11zm6.722 7.333h8.556a.613.613 0 0 1 .611.611v.611a.613.613 0 0 1-.611.611h-8.556a.613.613 0 0 1-.611-.61v-.612a.613.613 0 0 1 .611-.61zm-2.75-2.75a.613.613 0 0 1 .611-.61h.611a.613.613 0 0 1 .611.61v.611a.613.613 0 0 1-.611.611h-.611a.613.613 0 0 1-.611-.61v-.612zm.611-3.667h.611a.613.613 0 0 1 .611.611v.611a.613.613 0 0 1-.611.611h-.611a.613.613 0 0 1-.611-.61v-.61a.613.613 0 0 1 .611-.612zm2.445 3.667a.613.613 0 0 1 .611-.61h.611a.613.613 0 0 1 .611.61v.611a.613.613 0 0 1-.611.611h-.611a.613.613 0 0 1-.611-.61v-.612zm.611-3.667h.611a.613.613 0 0 1 .611.611v.611a.613.613 0 0 1-.611.611h-.611a.613.613 0 0 1-.611-.61v-.61a.613.613 0 0 1 .611-.612zm2.444 3.667a.613.613 0 0 1 .611-.61h.611a.613.613 0 0 1 .611.61v.611a.613.613 0 0 1-.611.611h-.611a.613.613 0 0 1-.611-.61v-.612zm.611-3.667h.611a.613.613 0 0 1 .611.611v.611a.613.613 0 0 1-.611.611h-.611a.613.613 0 0 1-.611-.61v-.61a.613.613 0 0 1 .611-.612zm2.444 3.667a.613.613 0 0 1 .611-.61h.611a.613.613 0 0 1 .611.61v.611a.613.613 0 0 1-.611.611h-.61a.613.613 0 0 1-.611-.61l-.001-.612zm.611-3.667h.611a.613.613 0 0 1 .611.611v.611a.613.613 0 0 1-.611.611h-.61a.613.613 0 0 1-.611-.61v-.61a.613.613 0 0 1 .611-.612h-.001zm2.444 3.667a.613.613 0 0 1 .611-.61h.611a.613.613 0 0 1 .611.61v.611a.613.613 0 0 1-.611.611h-.611a.613.613 0 0 1-.611-.61v-.612zm.611-3.667h.611a.613.613 0 0 1 .611.611v.611a.613.613 0 0 1-.611.611h-.611a.613.613 0 0 1-.611-.61v-.61a.613.613 0 0 1 .613-.612h-.002z" fill="#fff" stroke="#282828" stroke-width=".5"/>
    </g>
</svg>
