<svg width="46" height="28" viewBox="0 0 46 28" fill="none" xmlns="http://www.w3.org/2000/svg">
    <path d="M42 1.25H4A2.75 2.75 0 0 0 1.25 4v20A2.75 2.75 0 0 0 4 26.75h38A2.75 2.75 0 0 0 44.75 24V4A2.75 2.75 0 0 0 42 1.25z" stroke="#F5F5F5"/>
    <path d="M15.905 15.4c-1.763-.348-3.287-1.5-3.995-2.976C11.2 13.9 9.677 15.052 7.912 15.4l-.527-1.02c2.135-.384 3.875-2.088 3.875-3.78v-.816h1.309v.816c0 1.728 1.74 3.396 3.875 3.78l-.54 1.02zm.96 2.112v1.02H7.05v-1.02h9.816zm10.488-8.436v10.848h-1.188V9.076h1.188zm-3.432.264h1.152v10.056H23.92v-5.112h-1.812c-.612 1.308-1.62 2.484-3.312 3.444l-.696-.864c1.548-.864 2.46-1.86 2.976-3.06l-2.784.3-.168-1.068 3.288-.192c.132-.492.204-.984.24-1.512h-3v-.996h4.188c0 1.056-.084 2.016-.36 2.94h1.44V9.34zm14.135 5.244H36.82V9.076h1.236v5.508zm-3.036-2.7c0 1.428-1.212 2.436-2.856 2.436-1.62 0-2.832-1.008-2.832-2.436 0-1.44 1.212-2.448 2.832-2.448 1.644 0 2.856 1.008 2.856 2.448zm-4.488 0c0 .864.708 1.428 1.632 1.428.948 0 1.656-.564 1.656-1.428s-.708-1.428-1.656-1.428c-.924 0-1.632.564-1.632 1.428zm7.848 6.936v.972h-7.404v-2.844h5.856v-.9h-5.88v-.972h7.104v2.784h-5.868v.96h6.192z" fill="#fff"/>
</svg>
