<svg width="50" height="60" viewBox="0 0 50 60" fill="none" xmlns="http://www.w3.org/2000/svg">
<path d="M20.2439 49.009V42.134H21.1019V44.906H22.4219V41.958H23.2909V49.295H22.4219V45.643H21.1019V49.009H20.2439ZM19.7709 47.535C18.5389 47.766 17.4719 47.832 16.0639 47.832H15.4149V44.928H18.2309V43.531H15.3929V42.805H19.0999V45.61H16.2839V47.095C17.5709 47.095 18.5279 47.04 19.6829 46.809L19.7709 47.535ZM23.5769 51.594H16.8559V48.635H17.7579V50.857H23.5769V51.594ZM33.212 47.667H32.299V45.082H29.538V44.356H32.299V41.936H33.212V47.667ZM30.759 46.853C29.428 47.117 28.295 47.172 26.37 47.172H25.622V42.574H30.11V43.311H26.513V46.435C28.328 46.435 29.395 46.38 30.66 46.116L30.759 46.853ZM33.212 48.162V51.671H26.799V48.162H33.212ZM32.332 50.945V48.877H27.679V50.945H32.332Z" fill="#F5F5F5"/>
<path d="M32.2859 24.9282H32.4073L32.3211 24.8427L31.2866 23.8161L31.2864 23.8159C31.146 23.6754 31.0671 23.4849 31.0671 23.2863C31.0671 23.0876 31.1461 22.8971 31.2866 22.7566C31.427 22.6161 31.6176 22.5371 31.8163 22.5371C32.015 22.5371 32.2056 22.6161 32.3461 22.7566L34.7338 25.1443L34.7724 25.183C34.864 25.2878 34.9244 25.416 34.9469 25.553L34.9405 25.5594L34.9422 25.5823C34.946 25.6328 34.946 25.6835 34.9422 25.734L34.9422 25.7344C34.9304 25.9108 34.8565 26.0773 34.7335 26.2042C34.7334 26.2042 34.7334 26.2043 34.7333 26.2044L32.3461 28.5916C32.2056 28.7321 32.015 28.811 31.8163 28.811C31.6176 28.811 31.427 28.7321 31.2866 28.5916C31.1461 28.4511 31.0671 28.2606 31.0671 28.0619C31.0671 27.8632 31.146 27.6727 31.2864 27.5322L31.2866 27.5321L32.3211 26.5055L32.4073 26.42H32.2859H29.7437C29.7437 26.42 29.7437 26.42 29.7437 26.42C28.6536 26.4196 27.5881 26.0966 26.6813 25.4916C25.7745 24.8866 25.0671 24.0267 24.6482 23.0204L24.602 22.9095L24.5559 23.0204C24.137 24.0267 23.4296 24.8866 22.5228 25.4916C21.616 26.0966 20.5504 26.4196 19.4604 26.42C19.4604 26.42 19.4604 26.42 19.4603 26.42H15.7959C15.5981 26.42 15.4084 26.3414 15.2685 26.2015C15.1286 26.0616 15.05 25.8719 15.05 25.6741C15.05 25.4763 15.1286 25.2865 15.2685 25.1466C15.4084 25.0068 15.5981 24.9282 15.7959 24.9282H19.4604C20.5291 24.9282 21.554 24.5036 22.3097 23.7479C23.0654 22.9922 23.49 21.9673 23.49 20.8985C23.49 19.8298 23.0654 18.8049 22.3097 18.0492C21.554 17.2935 20.5291 16.8689 19.4604 16.8689H15.7959C15.5981 16.8689 15.4084 16.7903 15.2685 16.6504C15.1286 16.5105 15.05 16.3208 15.05 16.123C15.05 15.9252 15.1286 15.7354 15.2685 15.5955C15.4084 15.4557 15.5981 15.3771 15.7959 15.3771H19.4603C19.4604 15.3771 19.4604 15.3771 19.4604 15.3771C20.5504 15.3775 21.616 15.7005 22.5228 16.3055C23.4296 16.9105 24.137 17.7703 24.5559 18.7767L24.602 18.8876L24.6482 18.7767C25.0671 17.7703 25.7745 16.9105 26.6813 16.3055C27.5881 15.7005 28.6536 15.3775 29.7437 15.3771C29.7437 15.3771 29.7437 15.3771 29.7437 15.3771H32.2859H32.419L32.3188 15.2894L31.2376 14.3434C31.1686 14.2741 31.1138 14.1919 31.0764 14.1015C31.0387 14.0106 31.0194 13.9132 31.0194 13.8148C31.0194 13.7164 31.0387 13.619 31.0764 13.5281C31.114 13.4372 31.1692 13.3546 31.2388 13.2851C31.3084 13.2155 31.391 13.1603 31.4818 13.1227C31.5727 13.085 31.6702 13.0656 31.7685 13.0656C31.8669 13.0656 31.9644 13.085 32.0552 13.1227C32.1461 13.1603 32.2287 13.2155 32.2983 13.2851L34.6857 15.6725C34.6858 15.6725 34.6858 15.6726 34.6859 15.6726C34.7475 15.7356 34.7952 15.8109 34.8257 15.8936L34.8262 15.8947C34.8551 15.9674 34.8701 16.0449 34.8704 16.1232V16.1707H34.87L34.8708 16.177C34.8786 16.2389 34.8786 16.3016 34.8708 16.3635L34.8699 16.3708L34.8711 16.3781C34.8743 16.3972 34.8746 16.4166 34.8719 16.4358C34.8386 16.5159 34.7917 16.5895 34.7331 16.6535L32.3461 19.0405C32.2765 19.1101 32.1939 19.1653 32.103 19.2029C32.0121 19.2406 31.9147 19.2599 31.8163 19.2599C31.6176 19.2599 31.427 19.181 31.2866 19.0405C31.1461 18.9 31.0671 18.7095 31.0671 18.5108C31.0671 18.4124 31.0865 18.315 31.1241 18.2241C31.1618 18.1332 31.2169 18.0507 31.2864 17.9811L31.2866 17.981L32.3211 16.9544L32.4073 16.8689H32.2859H29.7437C28.675 16.8689 27.65 17.2935 26.8943 18.0492C26.1386 18.8049 25.7141 19.8298 25.7141 20.8985C25.7141 21.9673 26.1386 22.9922 26.8943 23.7479C27.65 24.5036 28.675 24.9282 29.7437 24.9282H32.2859Z" fill="white" stroke="#282828" stroke-width="0.1"/>
</svg>
