<svg width="50" height="60" viewBox="0 0 50 60" fill="none" xmlns="http://www.w3.org/2000/svg">
<path d="M4.60925 47.568V42.607H5.50025V44.345H8.16225V42.607H9.05325V43.762H11.3303V41.958H12.2433V49.251H11.3303V46.622H9.05325V47.568H4.60925ZM9.05325 45.885H11.3303V44.488H9.05325V45.885ZM5.50025 45.06V46.842H8.16225V45.06H5.50025ZM12.4743 51.594H5.89625V48.536H6.79825V50.857H12.4743V51.594ZM22.3514 46.435C20.8114 46.171 19.3484 45.324 18.6994 44.125C18.0834 45.324 16.5874 46.171 15.0584 46.435L14.6954 45.709C16.4994 45.445 18.2264 44.268 18.2264 42.849V42.299H19.1724V42.849C19.1724 44.224 20.9324 45.445 22.7254 45.709L22.3514 46.435ZM19.1284 48.25V51.825H18.2264V48.25H14.2444V47.502H23.1544L23.1654 48.25H19.1284ZM35.7665 50.538H26.8015V49.801H30.8275V47.161H27.9015V42.794H28.8035V46.435H34.7435V47.161H31.7295V49.801H35.7665V50.538ZM38.0646 47.414V42.849H44.7416V43.597H38.9556V46.677H44.8406V47.414H38.0646ZM45.8746 50.483H36.9206V49.735H45.8746V50.483Z" fill="#F5F5F5"/>
<path d="M33 9.25H17C15.4812 9.25 14.25 10.4812 14.25 12V28C14.25 29.5188 15.4812 30.75 17 30.75H33C34.5188 30.75 35.75 29.5188 35.75 28V12C35.75 10.4812 34.5188 9.25 33 9.25Z" stroke="#F5F5F5"/>
<path d="M23.972 24.338L20.5 15H22.46L24.938 22.126L27.416 15H29.264L25.792 24.338H23.972Z" fill="#F5F5F5"/>
</svg>
