<svg width="50" height="60" viewBox="0 0 50 60" fill="none" xmlns="http://www.w3.org/2000/svg">
    <path d="M45 0H5a5 5 0 0 0-5 5v50a5 5 0 0 0 5 5h40a5 5 0 0 0 5-5V5a5 5 0 0 0-5-5z" fill="#393939"/>
    <path d="M14.295 50.549H5.33v-.748h4.015v-2.057c-1.837-.121-3.135-1.122-3.135-2.563 0-1.573 1.518-2.585 3.597-2.585 2.079 0 3.575 1.012 3.575 2.585 0 1.441-1.287 2.442-3.124 2.563v2.057h4.037v.748zm-7.216-5.368c0 1.133 1.144 1.87 2.728 1.87 1.573 0 2.717-.737 2.717-1.87s-1.144-1.87-2.717-1.87c-1.584 0-2.728.737-2.728 1.87zm10.328-.715h5.038v-1.804h.88v5.137h-6.809v-5.137h.891v1.804zm5.038 2.596v-1.87h-5.038v1.87h5.038zm1.958 3.443H15.46v-.748h8.943v.748zm9.503-2.519h-.869v-6.028h.87v6.028zm-2.772-5.819h.858v5.742h-.858v-2.684H29.65v-.737h1.485v-2.321zm-1.166 5.346a3.43 3.43 0 0 1-1.892-1.969c-.34.968-1.012 1.771-1.98 2.2l-.473-.693c1.265-.561 2.002-1.826 2.002-3.003v-.561H25.81v-.737h4.378v.737h-1.694v.55c0 1.089.693 2.255 1.925 2.783l-.45.693zm3.938.913v3.399h-.902v-2.673h-5.73v-.726h6.632zm2.936-.429v-5.192h6.677v.726h-5.764v1.463H43.3v.715h-5.544v1.562h5.863v.726h-6.776zm7.8 2.541h-8.955v-.737h8.954v.737zM33.65 14.678l-7.67-4.415a2 2 0 0 0-1.957 0l-7.669 4.415a1.94 1.94 0 0 0-.979 1.707v8.853a2.017 2.017 0 0 0 .978 1.707l7.672 4.415a1.89 1.89 0 0 0 1.957 0l7.67-4.438a1.94 1.94 0 0 0 .973-1.707v-8.83a1.988 1.988 0 0 0-.978-1.707h.002zm-8.853-3.072a.338.338 0 0 1 .2-.046c.069.005.136.02.2.046l7.078 4.1-7.282 4.188-7.274-4.191 7.078-4.096zM17.15 25.58a.422.422 0 0 1-.2-.34v-8.194l7.282 4.21v8.4L17.15 25.58zm15.7 0-7.078 4.1v-8.42l7.282-4.21v8.17a.41.41 0 0 1-.2.364l-.004-.003z" fill="#D4ED3E"/>
</svg>
